<svg xmlns="http://www.w3.org/2000/svg" viewBox="0 0 1240 800" width="1240" height="800"><rect width="1240" height="800" fill="#ffffff"></rect><text x="620" y="31" font-family="'Segoe Print','Bradley Hand','Comic Sans MS','Chalkboard SE',cursive" font-size="23" fill="#1e1e1e" font-weight="bold" text-anchor="middle">Module 02  —  Manual deployment on EC2</text><text x="620" y="56" font-family="'Segoe Print','Bradley Hand','Comic Sans MS','Chalkboard SE',cursive" font-size="16" fill="#868e96" text-anchor="middle">Two servers. No public IPs. One hardcoded address holding it together.</text><g><path d="M155.54587893430823 98.00601981884324 C168.3323213367837 97.63454361647472, 182.98580823907025 99.12518444142826, 195.44890853230729 101.00833697137674 C207.91200882554432 102.89148950132521, 221.61855725598846 106.14428885459303, 230.32448069373038 109.3049349985341 C239.0304041314723 112.46558114247516, 244.68939555744765 115.99869023161357, 247.6844491587588 119.97221383502311 C250.67950276006997 123.94573743843266, 251.4340270692002 128.84375991683524, 248.29480230159731 133.1460766189914 C245.15557753399443 137.44839332114756, 237.59500323560667 142.44532323830236, 228.8491005531415 145.78611404796004 C220.10319787067635 149.12690485761772, 208.0467355733484 151.49497636007527, 195.8193862068063 153.19082147693743 C183.59203684026423 154.8866665937996, 169.2411033464443 155.70628883605335, 155.485004353889 155.96118474913305 C141.7289053613337 156.21608066221276, 125.77417639307662 156.42632725275223, 113.28279225147445 154.72019695541573 C100.79140810987228 153.01406665807923, 89.00243252941705 149.38697578747423, 80.53669950427596 145.72440296511405 C72.07096647913487 142.06183014275388, 65.3861416709504 137.0255284361196, 62.48839410062793 132.74476002125465 C59.59064653030546 128.4639916063897, 60.09194974543986 124.08305957374402, 63.150214082341165 120.03979247592429 C66.20847841924247 115.99652537810455, 72.30862651620721 111.93309323753755, 80.83798012203575 108.48515743433624 C89.36733372786428 105.03722163113494, 100.7366412482831 101.24639417543851, 114.32633571731233 99.3521776567165 C127.91603018634156 97.4579611379945, 153.32009119686566 97.38004418951206, 162.37614693621111 97.11985832200425 C171.43220267555657 96.85967245449643, 168.7286334867067 97.4326435659082, 168.662670153385 97.7910624516696 M110.6524943726866 100.00513405577667 C121.73327936937011 98.06143729906549, 139.69384402933352 98.40169102727666, 153.82899878733306 98.3359278281279 C167.9641535453326 98.27016462897913, 183.10184022633112 98.0909541947748, 195.46342292068383 99.61055486088412 C207.82500561503653 101.13015552699345, 219.46561437700078 104.23330539205885, 227.99849495344932 107.45353182478385 C236.53137552989787 110.67375825750885, 243.43849146469287 114.76611641018172, 246.66070637937509 118.93191345723415 C249.8829212940573 123.09771050428657, 249.75820161376012 128.23162341636532, 247.33178444154254 132.44831410709838 C244.90536726932496 136.66500479783144, 240.114740136449 140.78393376042672, 232.10220334606953 144.2320576016325 C224.08966655569006 147.6801814428383, 211.72644685361888 150.9851015959201, 199.2565636992657 153.13705715433306 C186.78668054491254 155.28901271274603, 171.0186953770667 156.8879953155178, 157.28290441995046 157.1437909521103 C143.5471134628342 157.3995865887028, 129.59761280447492 156.30629584333118, 116.84181795656825 154.671830973888 C104.08602310866158 153.03736610444483, 89.89097503745796 150.74431994490484, 80.74813533251039 147.33700173545122 C71.60529562756281 143.9296835259976, 65.3141491092669 138.64702920320926, 61.98477972688279 134.22792171716623 C58.65541034449867 129.8088142311232, 57.74370238090068 124.92610285629591, 60.77191903820567 120.8223568191931 C63.800135695510654 116.7186107820903, 71.79016749421434 112.71230599087124, 80.1540796707127 109.60544549454939 C88.51799184721106 106.49858499822753, 105.67347363721856 103.73910825106442, 110.9553920971958 102.18119384126194 C116.23731055717303 100.62327943145947, 111.12838178250239 100.25179570665236, 111.84559043057607 100.25795903573453" stroke="none" stroke-width="0" fill="#f1f3f5"></path><path d="M129.98062837990778 98.66278603066408 C142.1191818462779 97.06788562924615, 157.56240180885473 97.33923108053932, 170.95556170450612 98.1639876506132 C184.34872160015752 98.98874422068707, 198.97715263668522 101.22719070273405, 210.3395877538161 103.61132545110732 C221.70202287094696 105.99546019948059, 232.46643788293594 108.79413766643779, 239.13017240729135 112.46879614085283 C245.79390693164677 116.14345461526787, 249.8838264175401 121.22895766321056, 250.3219948999486 125.65927629759751 C250.76016338235712 130.08959493198446, 247.2734823427184 135.10188481704134, 241.75918330174238 139.05070794717454 C236.24488426076636 142.99953107730775, 227.30294834120863 146.77378803809563, 217.23620065409244 149.35221507839668 C207.16945296697625 151.93064211869773, 194.3610278260966 153.54983247479407, 181.35869717904524 154.52127018898076 C168.35636653199387 155.49270790316746, 152.96504074956545 155.87383975432337, 139.22221677178428 155.18084136351675 C125.47939279400309 154.48784297271013, 110.36511702018409 152.77141603391354, 98.90175331235815 150.363279844141 C87.43838960453222 147.95514365436847, 77.01268016602256 144.41320360836755, 70.44203452482868 140.73202422488157 C63.87138888363481 137.0508448413956, 60.08684971233002 132.61184063052653, 59.477879465194874 128.27620354322502 C58.86890921805973 123.94056645592352, 61.40095463956808 118.5456871333024, 66.78821304201782 114.71820170107252 C72.17547144446756 110.89071626884264, 81.0240776587114 108.0751705268838, 91.80142987989332 105.31129094984573 C102.57878210107523 102.54741137280766, 124.41564978728326 99.25756125270223, 131.45232636910933 98.13492423884415 C138.4890029509354 97.01228722498607, 133.5629115398334 98.08313389124322, 134.0214893708498 98.57546886669726 M199.2139083629749 100.04570657859465 C211.41991163759616 101.36773643573628, 222.4686850192112 105.13258168394877, 230.8636011672782 108.64027323090465 C239.25851731534522 112.14796477786054, 247.0803156679754 116.95468308501638, 249.58340525137694 121.09185586032997 C252.08649483477848 125.22902863564356, 249.26148767723507 129.1927800460388, 245.88213866768749 133.46330988278615 C242.5027896581399 137.7338397195335, 237.74683243943826 143.1251179188353, 229.30731119409148 146.71503488081407 C220.8677899487447 150.30495184279286, 208.12085454319816 153.56061921136956, 195.24501119560676 155.00281165465893 C182.36916784801537 156.4450040979483, 166.31427188750973 155.8136286918167, 152.05225110854317 155.36818954055025 C137.79023032957662 154.9227503892838, 121.76485978558624 154.20546871692935, 109.67288652180736 152.33017674706036 C97.58091325802847 150.45488477719138, 87.32739755072694 147.26915180063605, 79.5004115258699 144.1164377213363 C71.67342550101284 140.96372364203654, 65.34671872674704 137.47258456149376, 62.71097037266506 133.41389227126186 C60.075222018583084 129.35519998102995, 60.37507701440909 124.22145030930218, 63.68592140137804 119.76428397994486 C66.99676578834699 115.30711765058754, 73.71665022536662 109.8965948787655, 82.57603669447879 106.67089429511789 C91.43542316359095 103.44519371147028, 104.17759844385807 101.9635189796934, 116.84224021605101 100.4100804780592 C129.50688198824395 98.856641976425, 145.16034891248995 97.50700809293429, 158.56388732763642 97.35026328531265 C171.9674257427829 97.19351847769101, 190.69644273995607 98.92052715047903, 197.26347070692992 99.46961163232942 C203.83049867390378 100.0186961141798, 198.57302087296415 99.75275921129773, 197.96605512947957 100.644770176415" stroke="#868e96" stroke-width="1.8" fill="none"></path></g><text x="155" y="130" font-family="'Segoe Print','Bradley Hand','Comic Sans MS','Chalkboard SE',cursive" font-size="16" fill="#1e1e1e" font-weight="bold" text-anchor="middle">INTERNET</text><g><path d="M154.28083358276635 163.11787371467798 C155.16072217589524 189.7148353725672, 157.9718134499183 215.8739291029051, 156.7815329419449 234.37664062213153 M155.09572745775804 162.86011343831197 C153.95936986829807 179.35658769970757, 154.5982046576934 196.0343814839609, 155.08813819801435 235.71895635062828" stroke="#e03131" stroke-width="1.8" fill="none" stroke-dasharray="9 7"></path></g><g><path d="M133.81700029931963 182.0214484576136 C145.13676035483556 190.6897700620871, 152.22699643192067 196.20375599023512, 173.05783953033387 217.37196874655783 M136.33487294930964 181.05213612597436 C147.131761560116 192.61075976095535, 159.82235755910352 204.54011805034617, 173.00576583761722 218.32274762075394" stroke="#e03131" stroke-width="1.8" fill="none"></path></g><g><path d="M174.7531670158729 180.9250232005492 C163.64839180137403 188.7594786914857, 153.7141719453726 199.59246227432507, 136.73414611872286 218.36729687098415 M174.57401844086127 181.44415881363676 C158.68606856613795 195.72207258406934, 144.40244397762604 209.3729905883586, 136.12339347722008 218.9265388908796" stroke="#e03131" stroke-width="1.8" fill="none"></path></g><text x="190" y="200" font-family="'Segoe Print','Bradley Hand','Comic Sans MS','Chalkboard SE',cursive" font-size="14" fill="#e03131" font-weight="bold" text-anchor="start">no inbound route</text><text x="190" y="220" font-family="'Segoe Print','Bradley Hand','Comic Sans MS','Chalkboard SE',cursive" font-size="14" fill="#e03131" text-anchor="start">no public IP</text><g><path d="M951.570279141888 96.14445807673037 L1189.1358218517155 97.65660415627062 L1190.3392273392528 160.04289307333528 L950.8915429677814 161.2705977771431" stroke="none" stroke-width="0" fill="#a5d8ff"></path><path d="M950.6346987723728 96.0297884043772 C1036.078110178548 99.08633160178651, 1122.5378894271207 96.06459250167825, 1191.135845527177 95.12776716740689 M949.2429075640093 96.51683629674447 C1010.8253895178533 94.36455670329944, 1073.4058030986005 94.02143444199359, 1189.2302592733636 96.4482437297825 M1191.769998619333 96.40335381887853 C1189.6409521729781 107.65990674346686, 1188.2408031017617 123.1681041840464, 1189.424324354902 163.9609354700893 M1190.1076160890982 96.53623685706407 C1189.068572348547 113.46824189107865, 1190.6711070777892 130.17038719151168, 1189.5351970834658 161.09841597545892 M1191.2462231886782 161.70151908689297 C1118.6667246276666 163.19155306525423, 1042.747576874628 161.6153041734208, 949.0815823482235 161.06125189818468 M1189.1294711866233 162.7902262937934 C1114.0942111068555 160.14967326576013, 1037.746615926281 158.99099017645213, 950.3924831278965 162.59875709360617 M951.4957263920456 162.6086704339832 C947.9940349751457 148.50195919945835, 948.65485010681 131.53798134811223, 948.5352884862572 96.51052012108266 M948.9088709695264 162.31057001221924 C950.4269685411781 145.01302152927965, 948.7224159443707 128.00432669166477, 949.1702681107447 95.0119737552479" stroke="#1971c2" stroke-width="1.8" fill="none"></path></g><text x="1070" y="120" font-family="'Segoe Print','Bradley Hand','Comic Sans MS','Chalkboard SE',cursive" font-size="14" fill="#1e1e1e" font-weight="bold" text-anchor="middle">You, in the browser</text><text x="1070" y="137.5" font-family="'Segoe Print','Bradley Hand','Comic Sans MS','Chalkboard SE',cursive" font-size="14" fill="#1e1e1e" font-weight="bold" text-anchor="middle">AWS Session Manager</text><g><path d="M39.1336002394557 249.13715876609086 C303.7505240765214 255.8367518300414, 566.4888978037238 255.85616466230155, 1200.126271624267 250.37757499724626 M39.827898359447715 249.68170890077948 C303.68157752588394 249.1413154914081, 568.286086923033 249.64766963741184, 1199.6446126700937 249.81819809660317 M1199.9594699884647 250.4927619813887 C1201.90867243567 337.24466917976014, 1201.4819546399897 426.24806191917014, 1199.3969634920002 670.5509415347419 M1200.4208306313144 249.75655018239368 C1198.1897103403767 380.80294319054155, 1198.2766568787856 512.1715258718837, 1199.8198781563317 670.0096518894729 M1199.837851547897 669.6520685294271 C824.7280278351903 671.4326945671917, 448.75049385637044 672.284741066444, 40.3509715411067 669.987260761559 M1199.5865565492213 670.1911874602735 C943.9661892552674 668.5448495818795, 687.4138885201514 669.1094230271996, 39.78607878223062 669.7288970540463 M40.25323861467676 669.2162970620325 C38.577670327878714 536.7754256209014, 39.93911741401911 403.91394718750803, 39.76660884804912 249.15348737895687 M39.41907103146456 670.0814230259715 C39.489406730373275 510.3230910568052, 39.10253321070892 349.57639464076465, 39.82099016507403 249.7196922883013" stroke="#1971c2" stroke-width="2.6" fill="none" stroke-dasharray="10 8"></path></g><text x="58" y="275" font-family="'Segoe Print','Bradley Hand','Comic Sans MS','Chalkboard SE',cursive" font-size="17" fill="#1971c2" font-weight="bold" text-anchor="start">VPC  10.0.0.0/16</text><g><path d="M71.13113591559231 301.4617815565318 L368.8575153458863 300.7232612799853 L368.5452461708337 411.57791231386364 L69.00530251152813 412.157533974573" stroke="none" stroke-width="0" fill="#b2f2bb"></path><path d="M70.8264848001355 299.6544233411513 C144.29572786897756 303.5375769481411, 219.06429051027217 301.1245262989118, 369.03242485351535 300.90145763967917 M70.48396616083512 300.10363887213543 C132.97072003843505 300.46296882978356, 195.58359344044712 300.41245212352646, 370.5267273240597 299.2718448863109 M369.81114793531594 300.72198563702403 C368.4687454934791 343.99002430960536, 370.9206255312637 384.8979666229337, 369.66108736507596 409.5481995809823 M369.5225932115689 300.09691564198585 C370.35993441070616 343.7687952371314, 370.022143557921 385.17640843670813, 370.1361920887604 410.52831655498596 M371.40538322520155 408.9992301040621 C279.7596489362413 411.28519684085364, 191.78209966861056 409.7209925160277, 70.75613008693864 411.05982341486265 M369.7797448721222 409.3611342114095 C290.29739051702836 411.79164130923704, 209.91899290370503 412.00787489735785, 69.6996435409216 409.74235542668737 M69.90719741098583 409.5262256968766 C70.43149164273589 378.7700937911868, 69.74828943564742 352.6113118153065, 70.55267135612667 300.79903159029783 M69.25181704703718 409.6606775319204 C69.57940975922345 377.964126274921, 70.44560412067175 347.7626714153215, 70.09573094192892 301.0282978510484" stroke="#2f9e44" stroke-width="1.8" fill="none"></path></g><text x="86" y="322" font-family="'Segoe Print','Bradley Hand','Comic Sans MS','Chalkboard SE',cursive" font-size="14" fill="#2f9e44" font-weight="bold" text-anchor="start">PUBLIC 10.0.1.0/24</text><g><path d="M109.24519174396991 335.05067317187786 L328.2446797162294 333.73458211123943 L330.8130916386843 396.7464909285307 L107.86361110508442 397.57165353000164" stroke="none" stroke-width="0" fill="#ffec99"></path><path d="M108.43954774820577 335.50438244039066 C179.7378986274372 331.5010947897576, 251.25796316077637 331.8339316487757, 331.7619805669674 332.9773520832654 M109.07987330908284 334.8019683377162 C193.93652246806388 335.192587421144, 277.6245128759188 334.68019415853405, 330.653062291949 334.1859722716637 M327.96514765918255 335.2426564007998 C328.39739960690736 356.35299963355067, 331.44924983044865 379.47357541024684, 329.10595223605634 394.6203866750002 M330.20411642938853 333.10416301339865 C329.64089580090047 349.35755297690633, 330.0636118939638 364.1807045981288, 330.2632315054536 395.2479997500777 M330.013553592861 394.3738425928851 C258.70729312024537 395.83490783901954, 189.5163164786905 397.471610667044, 108.79599132198639 394.3880388052789 M329.7492826810881 396.74395160419664 C249.09365647910494 394.7990184546091, 166.72476063439413 395.5762067620858, 110.67996463719038 396.39202781715414 M108.88634268939495 397.8479597836733 C112.47026574395895 374.0565797924995, 109.27922656320334 352.53109640777114, 111.5797290533781 332.7011356145143 M109.25359124094248 395.50279153436423 C109.16587134361266 382.9522026076913, 111.01115518569947 369.7544808074832, 110.58978456407786 333.290692602098" stroke="#f08c00" stroke-width="1.8" fill="none"></path></g><text x="220" y="366" font-family="'Segoe Print','Bradley Hand','Comic Sans MS','Chalkboard SE',cursive" font-size="14" fill="#1e1e1e" font-weight="bold" text-anchor="middle">NAT Gateway</text><g><path d="M71.75924757234752 440.63956478722395 L572.0318440865725 438.74590294249356 L568.6809371065349 639.9150695431978 L71.12191969864071 640.9857730854303" stroke="none" stroke-width="0" fill="#d0bfff"></path><path d="M69.8687224829334 439.81724327835883 C265.2001497874109 439.63579936661563, 461.7872776124717 439.4993461170281, 570.3942289121095 440.32420203865377 M69.76666699482514 439.80380200440555 C246.17514598116966 442.2399604252563, 422.31607535522664 442.6744507261382, 570.3154733856549 439.68892054803035 M570.4672191469123 441.58694860161165 C570.6358072544342 516.2681749647742, 569.9624650754716 592.7318551357682, 568.6957730750883 641.8832619851983 M570.7970526558565 440.2802612496603 C571.8123081837659 498.3202810699847, 572.8771781549876 557.8036699316751, 570.351233682888 640.150910290896 M569.2460220628566 640.8046529511753 C400.0850473227375 639.3590647426741, 230.87577931330918 639.9630657750187, 70.23607493713007 639.693920605704 M569.8887249416543 640.1552125990104 C433.7514446204127 641.0116355503176, 296.5215897056579 640.7311582385172, 69.91153460965472 639.6224870428694 M68.0789946683365 639.7927304713824 C73.41576725018709 593.2074123950488, 72.24681248198662 542.6032093779628, 68.38615469911107 440.9028895906272 M69.32984825186169 639.4104320155833 C71.31016725178723 570.2385043584657, 69.89214420853361 502.51610889474057, 70.97542618781127 439.7777850375616" stroke="#6741d9" stroke-width="1.8" fill="none"></path></g><text x="88" y="462" font-family="'Segoe Print','Bradley Hand','Comic Sans MS','Chalkboard SE',cursive" font-size="14" fill="#6741d9" font-weight="bold" text-anchor="start">PRIVATE 10.0.11.0/24    (ap-south-1a)</text><g><path d="M109.87330340072512 486.22845640257003 L531.4190084569157 488.15722377374766 L530.9487825743854 617.0836481578648 L109.98022829219698 618.3998926408589" stroke="none" stroke-width="0" fill="#f1f3f5"></path><path d="M110.61011561635158 486.93333370707614 C219.50951098109513 485.7197922053671, 331.6212166701292 485.15108637554687, 529.9671223998395 485.14744584881646 M109.9439323266474 486.1565007967227 C245.98785159979755 484.78097826500016, 382.03738532131274 483.9085634913532, 530.439457813569 486.2291791902595 M528.6731471069157 483.88399792835116 C529.5110655908585 537.2897045202553, 529.3628561859131 588.2463014625013, 527.995681978017 619.1647608630359 M529.3671628650278 485.3186577562243 C532.0769808476836 530.7006519962101, 531.8207108324439 576.3204640004784, 530.5173103388399 619.0873661402613 M530.3273521145155 618.8000909762509 C378.2109378592187 618.4233918489994, 229.35695893553665 616.6806061824451, 109.02402458276589 618.1756442921641 M529.857525009683 617.9561416041512 C372.3889837767366 615.8438357508868, 214.23418867677444 615.7908261081313, 110.51887923735313 617.9252178731748 M111.2446332462132 620.0914279572665 C112.78355787292719 573.747541538626, 108.9768447448373 529.4066450797021, 109.23384444788098 484.9053436629474 M109.25713962875307 617.1870195392519 C110.92502939355671 581.8078673202544, 110.32849219692051 545.8971236858517, 109.37789180837572 486.2154821041971" stroke="#868e96" stroke-width="2.6" fill="none"></path></g><text x="320" y="514" font-family="'Segoe Print','Bradley Hand','Comic Sans MS','Chalkboard SE',cursive" font-size="18" fill="#1e1e1e" font-weight="bold" text-anchor="middle">catalog-api</text><text x="140" y="541" font-family="'Segoe Print','Bradley Hand','Comic Sans MS','Chalkboard SE',cursive" font-size="13" fill="#1e1e1e" text-anchor="start">ec2  t3.micro   Amazon Linux 2023</text><text x="140" y="565" font-family="'Segoe Print','Bradley Hand','Comic Sans MS','Chalkboard SE',cursive" font-size="13" fill="#1e1e1e" text-anchor="start">gunicorn  -&gt;  port 8080</text><text x="140" y="590" font-family="'Segoe Print','Bradley Hand','Comic Sans MS','Chalkboard SE',cursive" font-size="14" fill="#e03131" font-weight="bold" text-anchor="start">private IP  10.0.11.87</text><g><path d="M671.7584429716692 441.4006854409352 L1172.0869193827734 439.68552585188297 L1170.018396244012 639.2050946945325 L671.5259997760877 641.1351915294305" stroke="none" stroke-width="0" fill="#d0bfff"></path><path d="M669.2900847802595 440.26717830704723 C790.2799790337544 442.6926127268339, 911.2832912541938 441.5409844942463, 1169.8079841059548 439.5912417454539 M670.4361638859525 440.02142961537857 C845.5216813333951 441.801945579481, 1021.730737235723 441.94519052894526, 1169.9248952325734 439.6195475528154 M1168.6123718631172 439.2671285264656 C1173.100942133575 516.2475396851804, 1170.3575658424593 594.916943396871, 1168.9270907359733 640.9406785623289 M1170.9638459733756 439.13312361009986 C1168.9252082868043 494.7979189963506, 1169.4156917313164 549.5833388952582, 1169.7614248848845 639.0879430642643 M1170.1046271059183 640.0884777817452 C1014.6534288009592 641.755067546601, 859.9676386219046 641.8295164273671, 669.4875985217648 640.3463817094317 M1169.9042137059655 639.9367746657102 C1052.6080727043377 640.1947163436548, 934.9222799337792 640.7567678347637, 669.8234284392065 639.8676365347217 M668.8232807931049 639.1862103669898 C669.9761516119685 572.2981927455714, 670.8074525898811 501.96719557705575, 671.6212929832027 438.2545937754431 M670.3254082012118 640.8930482909072 C668.4061554642747 600.3416734345276, 669.0822037878896 560.4318319109587, 669.5617359387007 440.2443150254455" stroke="#6741d9" stroke-width="1.8" fill="none"></path></g><text x="688" y="462" font-family="'Segoe Print','Bradley Hand','Comic Sans MS','Chalkboard SE',cursive" font-size="14" fill="#6741d9" font-weight="bold" text-anchor="start">PRIVATE 10.0.12.0/24    (ap-south-1b)</text><g><path d="M708.8052439169958 484.72911730539056 L1128.0214485066012 485.74086214434357 L1130.3565696077421 617.1715353203938 L710.7814507262781 618.2080081714317" stroke="none" stroke-width="0" fill="#f1f3f5"></path><path d="M710.8095179471919 484.90885610123064 C819.6354022197579 487.4350714520425, 929.5821409557673 488.8115804105881, 1128.871962676721 485.60714720764133 M709.9897786705272 486.52828862063944 C850.2391566881638 487.8831124704837, 989.9041817339755 488.535522639535, 1129.5834984060402 486.3787471681681 M1128.3452960086986 484.98363589216024 C1129.501263943243 535.1463118968531, 1129.7050389259339 580.6036307314411, 1129.5997422946616 617.5603056149557 M1129.804424814228 485.59020759826524 C1129.539719130679 531.3898904765956, 1129.5838839521846 577.7440265371464, 1130.2088644691744 617.496791512426 M1129.031309326766 617.8540419241547 C1011.5210948125143 620.8753481796306, 891.8166815987422 621.0475523695704, 709.3987279031405 616.9031732974042 M1130.2633003391736 618.369409445028 C1012.3066303228273 615.1897668479104, 894.4212066268806 615.3437811600963, 709.831325414124 617.9975691793827 M708.124822182767 618.091584350355 C707.8702192548603 579.3050940608606, 709.957733327517 537.6790302926674, 708.3918138636276 486.4470111684874 M710.7027469971217 618.5002980626189 C710.4073983661048 577.0041892993264, 710.5502423486821 537.3693879663012, 709.9444350727833 485.62539832657205" stroke="#868e96" stroke-width="2.6" fill="none"></path></g><text x="920" y="514" font-family="'Segoe Print','Bradley Hand','Comic Sans MS','Chalkboard SE',cursive" font-size="18" fill="#1e1e1e" font-weight="bold" text-anchor="middle">orders-api</text><text x="740" y="541" font-family="'Segoe Print','Bradley Hand','Comic Sans MS','Chalkboard SE',cursive" font-size="13" fill="#1e1e1e" text-anchor="start">ec2  t3.micro   Amazon Linux 2023</text><text x="740" y="565" font-family="'Segoe Print','Bradley Hand','Comic Sans MS','Chalkboard SE',cursive" font-size="13" fill="#1e1e1e" text-anchor="start">gunicorn  -&gt;  port 8081</text><text x="740" y="590" font-family="'Segoe Print','Bradley Hand','Comic Sans MS','Chalkboard SE',cursive" font-size="14" fill="#1e1e1e" font-weight="bold" text-anchor="start">private IP  10.0.12.42</text><g><path d="M698.5988372266293 541.2717666208744 C667.0325112640858 541.812311630547, 631.5778491199017 542.5804220965505, 561.8662434995174 539.8399652063847 M698.9765604764223 540.75075738132 C648.551970282197 539.1402104023099, 597.630386069417 540.1577252987028, 560.4071166783572 539.3291809767485" stroke="#e03131" stroke-width="2.6" fill="none"></path></g><g><g><path d="M559.3376321434974 540.6011987662315 C563.1630504865855 539.0205066988106, 565.1429688687887 538.1108690599178, 572.7523804238318 534.6234612986983 M559.5161922252178 540.3549034893513 C563.8905063920511 537.5862449665974, 568.0608019371264 536.149180086119, 572.0626113811015 534.3819996628703" stroke="#e03131" stroke-width="1.8" fill="none"></path></g><g><path d="M560.8234091363103 540.0624188306183 C561.9492890138633 541.206585135448, 565.884268434083 543.4179252934616, 571.2997112024456 544.3892475395112 M559.6988861323521 539.9724947660044 C564.9022320074405 542.5326614521372, 569.1423865322748 543.7086945992467, 572.2808167521163 544.8552356965675" stroke="#e03131" stroke-width="1.8" fill="none"></path></g></g><text x="620" y="499" font-family="'Segoe Print','Bradley Hand','Comic Sans MS','Chalkboard SE',cursive" font-size="15" fill="#e03131" font-weight="bold" text-anchor="middle">CATALOG_URL</text><text x="620" y="520" font-family="'Segoe Print','Bradley Hand','Comic Sans MS','Chalkboard SE',cursive" font-size="14" fill="#e03131" text-anchor="middle">http://10.0.11.87:8080</text><g><path d="M238.60733737628908 479.9824908496812 C237.95095522576383 458.53194399978963, 237.79699281030707 434.622852418758, 238.09516326468437 412.42594957966355 M239.69399695107714 481.72682544430717 C239.9970554492455 466.15634071482344, 240.11635552561097 452.616378045734, 239.35999959716574 412.94055478712545" stroke="#f08c00" stroke-width="1.8" fill="none" stroke-dasharray="9 7"></path></g><g><g><path d="M239.34165039606393 413.0462684016675 C240.90639333736226 418.17580903894327, 242.67249894881954 422.1424321858296, 244.40041761489792 425.1260596617191 M239.85534401323648 413.87086293730886 C241.3776773323248 416.1657204763098, 242.59356058331025 419.3927453462819, 244.99834024479821 425.3693275779738" stroke="#f08c00" stroke-width="1.8" fill="none"></path></g><g><path d="M240.82742738887669 414.5874884660542 C238.11847140514442 417.70550574963437, 236.08178517226366 422.2476474168751, 234.4259766139628 426.37007412298317 M240.0380379203707 413.488454213962 C238.53739548587848 417.36757772999664, 237.13752977997245 419.5118231324432, 234.61477383626416 426.28079183212213" stroke="#f08c00" stroke-width="1.8" fill="none"></path></g></g><text x="300" y="437" font-family="'Segoe Print','Bradley Hand','Comic Sans MS','Chalkboard SE',cursive" font-size="13" fill="#f08c00" text-anchor="start">dnf / pip  outbound only</text><g><path d="M1070.0565629922335 166.13463682506037 C1069.8399792317853 233.24785907231666, 1067.405157135101 304.11414227314526, 1071.027861625049 480.29577297408633 M1070.1223173350052 166.36269723406093 C1073.132774579238 288.84225281417355, 1073.3988912704854 410.31583218000304, 1069.5706558777229 480.1051713991796" stroke="#1971c2" stroke-width="2.6" fill="none" stroke-dasharray="9 7"></path></g><g><g><path d="M1070.0376625644415 480.08964815862475 C1069.8932718104577 476.5731661106362, 1067.115901756256 475.57024773225345, 1065.3835175189167 468.3267847130567 M1070.0814452052489 480.24150256928056 C1068.0704734177905 475.66217759387627, 1066.1803346275306 470.37652599078973, 1064.4132345972375 468.1998723306999" stroke="#1971c2" stroke-width="1.8" fill="none"></path></g><g><path d="M1069.4434395572544 479.5508682230115 C1070.9831533294503 478.1961239656997, 1072.4730940325035 475.6886173810266, 1074.5326200770794 467.4907991743208 M1070.2641391123832 479.85909384593367 C1071.0833011105879 477.63699022889926, 1072.1972438545904 475.21568981924094, 1075.2332117478013 468.0713365848482" stroke="#1971c2" stroke-width="1.8" fill="none"></path></g></g><text x="1086" y="313" font-family="'Segoe Print','Bradley Hand','Comic Sans MS','Chalkboard SE',cursive" font-size="13" fill="#1971c2" text-anchor="start">shell access</text><text x="1086" y="333" font-family="'Segoe Print','Bradley Hand','Comic Sans MS','Chalkboard SE',cursive" font-size="13" fill="#1971c2" text-anchor="start">without SSH</text><text x="1086" y="353" font-family="'Segoe Print','Bradley Hand','Comic Sans MS','Chalkboard SE',cursive" font-size="13" fill="#1971c2" text-anchor="start">without a key</text><g><path d="M40.178035529628396 699.873050692305 C401.04802020125095 704.7691385108978, 761.707490727976 704.4853473050148, 1199.5060876522214 699.3170603754371 M39.81632890950888 700.0127909033373 C437.94287254031747 697.7689201352491, 836.5799021254107 698.2307224879161, 1200.4149126161262 700.3268930296972 M1200.3564439440147 701.9056215291843 C1198.9346083693683 730.2056291753426, 1197.1902633898437 755.840183292143, 1201.4608296597376 785.3085051959381 M1200.4270180257968 700.787123240251 C1199.907369780863 727.5367034011521, 1201.8137437495836 756.9764703487047, 1199.2450565579347 782.9251080674119 M1199.160020397678 784.2246163155884 C758.8391181435436 783.6526089365632, 315.3533316273241 782.9285273559243, 40.84145585156977 784.635411124453 M1199.6373501397297 784.3685948913172 C797.6273370441422 788.8576166564718, 396.0619871489331 788.2110912961259, 40.1496413506195 784.297635753639 M40.23201959375292 785.8178100472317 C37.859196795138715 754.3574217872695, 39.263508660706876 720.254809978418, 41.14448521975428 699.0460427587852 M41.05456404415891 783.0609755945392 C40.021465989682824 750.8253497333266, 41.030504333708436 719.7461276997813, 38.940166014712304 699.5536961776204" stroke="#e03131" stroke-width="2.6" fill="none"></path></g><text x="64" y="726" font-family="'Segoe Print','Bradley Hand','Comic Sans MS','Chalkboard SE',cursive" font-size="16" fill="#e03131" font-weight="bold" text-anchor="start">The problem you will feel in Module 04:</text><text x="64" y="750" font-family="'Segoe Print','Bradley Hand','Comic Sans MS','Chalkboard SE',cursive" font-size="14" fill="#1e1e1e" text-anchor="start">That IP address is written into a systemd unit file by hand. Replace the catalog server and</text><text x="64" y="772" font-family="'Segoe Print','Bradley Hand','Comic Sans MS','Chalkboard SE',cursive" font-size="14" fill="#1e1e1e" text-anchor="start">orders breaks. Every install step above was typed by a human and is nowhere in version control.</text></svg>