<svg xmlns="http://www.w3.org/2000/svg" viewBox="0 0 1240 840" width="1240" height="840"><rect width="1240" height="840" fill="#ffffff"></rect><text x="620" y="27" font-family="'Segoe Print','Bradley Hand','Comic Sans MS','Chalkboard SE',cursive" font-size="21" fill="#1e1e1e" font-weight="bold" text-anchor="middle">Rolling update  —  replicas: 3, maxSurge: 1, maxUnavailable: 0</text><text x="50" y="106" font-family="'Segoe Print','Bradley Hand','Comic Sans MS','Chalkboard SE',cursive" font-size="16" fill="#1e1e1e" font-weight="bold" text-anchor="start">start</text><g><path d="M171.5710837425664 59.383337423019114 L285.0807465555146 60.71698124688119 L285.00176820177586 134.75286792200058 L170.48746289033443 135.12117933314295" stroke="none" stroke-width="0" fill="#f1f3f5"></path><path d="M167.8085001496598 58.91072422880679 C205.1582418853417 60.82641719432771, 242.43388980235903 59.738550214490296, 284.42891976516694 60.785984373278914 M169.61743647465482 60.076068062987176 C199.8812491540797 58.54840513968542, 230.06433072770017 58.86487648093775, 286.0528829188086 60.71137381037697 M285.4309995857999 58.58100614566356 C285.42620388313827 74.54088175650686, 286.3261591617733 90.45625072214752, 285.1672973064706 134.6082806410268 M285.9222848267294 59.61087105711922 C286.5136864776961 81.32993756933138, 286.55444689646885 103.20004616146909, 286.1905591250397 136.2795247926377 M285.3486572174355 137.43254283089192 C247.47619107980282 133.7790768633187, 207.96140602584927 137.61160592535137, 170.76935721319168 137.64203797597438 M284.9165978432633 135.29449216267093 C245.22409164877607 134.28028392236607, 204.39912705356252 135.18314232569114, 170.69129923889415 136.10556065877898 M170.6687179176137 137.28260113019496 C170.76333759126067 109.0809878317639, 169.20158213075996 86.18219454828649, 169.34058654587716 59.0531560363248 M170.00266129085793 136.86317100366577 C170.52550095806941 106.38162035224958, 170.89413517902716 74.88672579443082, 170.7410804332234 60.693592126574366" stroke="#868e96" stroke-width="1.8" fill="none"></path></g><text x="228" y="100" font-family="'Segoe Print','Bradley Hand','Comic Sans MS','Chalkboard SE',cursive" font-size="16" fill="#1e1e1e" font-weight="bold" text-anchor="middle">v1</text><g><path d="M301.685139570944 58.972229038365185 L416.4679109258577 59.728302078135314 L419.26961366962644 133.92144653666764 L301.3457714838907 134.53529888857156" stroke="none" stroke-width="0" fill="#f1f3f5"></path><path d="M301.2808335827664 61.11787371467799 C345.13040314223616 59.464828657212855, 391.78981633726505 57.65171702415049, 419.7815329419449 58.376640622131525 M302.095727457758 60.86011343831196 C328.6020819234662 60.80147523280904, 355.70721787950026 60.595594134896245, 418.08813819801435 59.71895635062829 M419.9849993096665 59.10167690943926 C417.1727398052305 75.56813626084477, 418.6726652696222 91.96041787024588, 416.61216217745095 138.08046773504466 M418.60380804454906 60.81811842853203 C417.4540107961603 84.68322928221896, 418.2552781607814 109.53341026911512, 418.3175985417329 134.99920798772945 M419.84776202905925 136.92090471815317 C376.99365179967134 136.69846143886448, 334.3356767097488 135.75267654225232, 300.3489286886528 134.3367299599573 M416.9276630721055 137.02415360445156 C388.7068194146268 135.9087398706101, 358.59854508927094 135.2135038761519, 301.6854987314902 136.90926776463166 M301.6478631960228 135.2043352169916 C302.6034293187678 119.4016463862732, 302.93383688459994 102.17032424714417, 302.3676442431286 61.35526006054133 M302.00443548476323 136.70528500610962 C302.1425015967824 110.50270058708266, 301.29022529837863 85.54454299071804, 301.03513405537234 58.95598687762394" stroke="#868e96" stroke-width="1.8" fill="none"></path></g><text x="360" y="100" font-family="'Segoe Print','Bradley Hand','Comic Sans MS','Chalkboard SE',cursive" font-size="16" fill="#1e1e1e" font-weight="bold" text-anchor="middle">v1</text><g><path d="M436.19919539932164 58.56112065371126 L547.8550752962008 58.73962290938944 L549.137459137477 137.4900251513347 L432.204080077447 133.94941844400017" stroke="none" stroke-width="0" fill="#f1f3f5"></path><path d="M434.7531670158729 58.925023200549184 C461.90256439913065 58.10324012009799, 490.34574287217106 59.96488383381069, 550.7341461187228 60.367296870984134 M434.57401844086127 59.44415881363675 C480.5229146928526 60.85454532593265, 527.7501050313003 60.12631178885475, 550.1233934772201 60.9265388908796 M550.1389990335331 59.622347673214975 C548.9192757273227 76.59539076518267, 551.019171377471 89.06458501834423, 548.0570270484313 137.15265482906253 M549.0853312623688 59.82536579994485 C550.5943351146243 88.03652099510654, 549.9561094250939 118.06677437676117, 550.444637958426 135.91889118282126 M549.9468668406829 136.40926660541444 C506.5111125195399 135.21784601441024, 465.1099473936483 133.8937471591532, 434.32850016411396 135.43142194394022 M548.9387283009477 136.5538150462322 C508.98954718047753 137.53719581885412, 466.3979631249793 137.44386542661263, 434.8796982240863 135.51297487048433 M432.62700847443193 137.52606930378823 C434.4435210462749 114.52230494078248, 432.2660916384399 92.15845394600181, 435.39470194038006 59.25736408475787 M434.00620967866854 136.54739900855347 C433.7595022354953 116.8237808219157, 433.8863154177301 96.20236018700524, 433.52918767752124 59.41838162867352" stroke="#868e96" stroke-width="1.8" fill="none"></path></g><text x="492" y="100" font-family="'Segoe Print','Bradley Hand','Comic Sans MS','Chalkboard SE',cursive" font-size="16" fill="#1e1e1e" font-weight="bold" text-anchor="middle">v1</text><text x="730" y="104" font-family="'Segoe Print','Bradley Hand','Comic Sans MS','Chalkboard SE',cursive" font-size="14" fill="#868e96" text-anchor="start">3 old pods serving</text><g><path d="M100.76166716553271 144.03574742935598 C101.11202097824216 162.77352643571794, 102.33420352628826 176.23556958697736, 101.36306588388979 190.95328124426305 M99.09145491551608 144.62022687662392 C98.43740684745461 156.14897142816335, 99.71507642624528 168.0403550254181, 99.0762763960287 192.53791270125657" stroke="#6741d9" stroke-width="1.8" fill="none"></path></g><g><g><path d="M100.36006084188818 192.01689878478646 C98.43238719275288 188.54380738519703, 97.1230014168694 182.6037512508703, 95.34347252806441 179.63503127322798 M99.57050596006215 192.29319815985858 C98.33770067984663 188.9088199009006, 97.58299051997543 185.67166320998805, 94.26244477016644 180.38412978017038" stroke="#6741d9" stroke-width="1.8" fill="none"></path></g><g><path d="M99.76583783470095 191.4781188491732 C100.98427905697187 188.11164089617372, 103.32421438356958 182.74699655555662, 104.4925750862269 180.879045734492 M99.75319986719639 191.9107894365117 C101.84351579944928 188.53417700690773, 102.69579710023044 185.78734026461137, 105.08242192073001 180.25559403431868" stroke="#6741d9" stroke-width="1.8" fill="none"></path></g></g><text x="50" y="248" font-family="'Segoe Print','Bradley Hand','Comic Sans MS','Chalkboard SE',cursive" font-size="16" fill="#1e1e1e" font-weight="bold" text-anchor="start">surge</text><g><path d="M169.68433497026564 201.73334969207644 L284.52298622205853 202.66792498752474 L284.2070728071034 279.6114716880023 L169.74985156133772 276.6847173325717" stroke="none" stroke-width="0" fill="#f1f3f5"></path><path d="M167.83400059863925 199.8428969152272 C196.83296754136683 203.29926877731083, 221.13555920943617 203.34780085796118, 286.3156790606678 202.94393749311567 M169.5697458986193 201.2042722519487 C195.62499661631884 201.02482055874168, 223.55732291080056 202.29070592375098, 285.11153167523446 201.5454952415079 M285.9239983431995 202.92402458265423 C287.2952155325532 216.76352702602745, 286.4950366470933 234.8250028885901, 284.8691892258823 279.0331225641072 M286.7891393069178 201.54348422847687 C286.1451459107846 225.41975027732553, 286.3081875858754 249.90018464587632, 285.6622365001589 278.0180991705507 M285.59462886974217 277.13017132356765 C250.10476431921126 277.24750745327475, 212.44562410339714 279.3776237014055, 170.87742885276674 277.96815190389754 M284.96639137305317 278.47796865068375 C260.99636659510435 276.8147356894642, 234.6965082142502 278.22616930276456, 169.46519695557654 277.32224263511597 M170.47487167045475 276.5304045207798 C167.84375036504267 252.9239513270557, 170.3967285230398 228.528778193146, 169.56234618350862 200.4126241452992 M168.91064516343175 278.1526840146631 C169.99880383227764 249.6264814089984, 169.27334071610866 219.2469031777233, 169.6643217328936 201.47436850629748" stroke="#868e96" stroke-width="1.8" fill="none"></path></g><text x="228" y="242" font-family="'Segoe Print','Bradley Hand','Comic Sans MS','Chalkboard SE',cursive" font-size="16" fill="#1e1e1e" font-weight="bold" text-anchor="middle">v1</text><g><path d="M303.1311359155923 203.46178155653178 L416.8575153458863 202.7232612799853 L416.5452461708337 279.57791231386364 L301.00530251152816 280.157533974573" stroke="none" stroke-width="0" fill="#f1f3f5"></path><path d="M303.1270851802081 201.52873382456602 C330.37693548537794 204.55279099354146, 359.3986802455038 201.26209087976812, 416.6805085729808 203.22932635433972 M302.6599892551079 202.1413333153352 C326.42065720874814 202.6882421790555, 350.3533155569807 202.61935206641704, 418.7183030599728 201.00700794812292 M417.81114793531594 202.72198563702403 C416.49963582077623 233.06797243617476, 418.9515158585608 261.0538628760725, 417.66108736507596 277.5481995809823 M417.5225932115689 202.09691564198585 C418.5623951031968 232.5675633130595, 418.2246042504117 260.7739445885643, 418.1361920887604 278.52831655498596 M419.91653446666896 276.63524057753386 C382.03088320381937 279.04957721921204, 349.14757073186337 276.9164569089055, 303.031141788885 279.44529126770794 M417.6996359879151 277.12877264972775 C387.31389821339394 278.71182042768146, 355.70621772799643 279.00670022776274, 301.5904010409489 277.64864764567466 M301.9071974109858 277.5262256968766 C302.80522035049205 255.9516527246684, 302.1220181434036 238.9744296822697, 302.55267135612667 202.79903159029783 M301.2518170470372 277.6606775319204 C301.5750001351342 255.62923714052886, 302.44119449658245 235.09289314653725, 302.09573094192893 203.02829785104842" stroke="#868e96" stroke-width="1.8" fill="none"></path></g><text x="360" y="242" font-family="'Segoe Print','Bradley Hand','Comic Sans MS','Chalkboard SE',cursive" font-size="16" fill="#1e1e1e" font-weight="bold" text-anchor="middle">v1</text><g><path d="M433.24519174396994 203.05067317187786 L548.2446797162295 201.73458211123943 L550.8130916386842 278.7464909285307 L431.86361110508443 279.57165353000164" stroke="none" stroke-width="0" fill="#f1f3f5"></path><path d="M432.1994186133146 203.7358833104372 C470.34909674227237 200.12880245642663, 508.75460678040986 200.51285768942833, 552.0331217497587 200.81998260319233 M432.9382802382112 202.92537869066 C478.34148997813463 202.74131227217913, 522.3962027087807 202.15006972037554, 550.7535583391785 202.21459048837423 M547.9651476591825 203.24265640079975 C548.2461717428685 229.69522694051267, 551.2980219664097 258.1580300241709, 549.1059522360563 276.6203866750002 M550.2041164293885 201.10416301339865 C549.5027194216609 220.72085502594712, 549.9254355147242 238.90730869621038, 550.2632315054536 277.2479997500777 M550.0156392782926 276.1236024647951 C511.548343923688 277.56896179475785, 475.5218414157629 279.4575275258064, 432.61071326434615 276.13998325169086 M549.7107012167573 278.8584340915084 C507.5966259792447 277.27787637592553, 463.5056357637048 278.17466177822354, 434.784600533545 278.4523547515273 M432.88634268939495 279.8479597836733 C436.6517120779991 251.07231127917765, 433.46067289724346 224.56255938112733, 435.5797290533781 200.70113561451436 M433.25359124094246 277.50279153436423 C433.1920007738471 261.9503173753619, 435.03728461593386 245.75071034282448, 434.58978456407783 201.29069260209798" stroke="#868e96" stroke-width="1.8" fill="none"></path></g><text x="492" y="242" font-family="'Segoe Print','Bradley Hand','Comic Sans MS','Chalkboard SE',cursive" font-size="16" fill="#1e1e1e" font-weight="bold" text-anchor="middle">v1</text><g><path d="M567.7592475723475 202.63956478722395 L684.0318440865725 200.74590294249356 L680.6809371065349 277.9150695431978 L567.1219196986407 278.98577308543025" stroke="none" stroke-width="0" fill="#ffec99"></path><path d="M565.6717520464211 201.5430327963084 C610.3212579991668 203.16721391931176, 658.1105333153158 202.8260244990885, 682.9857349265367 202.81063885204495 M565.4165712213144 201.50942406598477 C607.0623227475211 202.79438236530274, 648.0390898605808 203.88078737433403, 682.7888136183843 201.22217302862555 M682.5191473830491 203.76332716457546 C681.9991076649607 230.72248144485056, 681.2509280742586 259.6621971722692, 680.5508171070367 280.09257376901803 M682.8856396472081 202.31141038481147 C682.4494437401249 224.07414673883468, 683.6326667790368 247.44067280385642, 682.3902709221468 278.16768294516953 M680.1147440899164 280.0119643520564 C641.0658046435565 276.0883463703036, 601.8961120996623 277.5985981427074, 566.5902847398072 277.23467523567376 M681.7217664455995 278.388095533289 C651.0793537450954 278.90633232416957, 617.7050537994131 278.20502332868426, 565.7788000261411 277.05606185738 M563.865487967804 277.76969387046995 C568.4918038055062 261.39296983368695, 567.1929276510834 240.55068907998503, 564.2067867506296 203.0032396387309 M565.2553654348478 277.3449055368081 C567.0090014125601 250.87139761019498, 565.4333747352854 226.00852753911164, 567.0838381862268 201.75308735314758" stroke="#f08c00" stroke-width="1.8" fill="none"></path></g><text x="624" y="234" font-family="'Segoe Print','Bradley Hand','Comic Sans MS','Chalkboard SE',cursive" font-size="16" fill="#1e1e1e" font-weight="bold" text-anchor="middle">v2</text><text x="624" y="255" font-family="'Segoe Print','Bradley Hand','Comic Sans MS','Chalkboard SE',cursive" font-size="11" fill="#1e1e1e" text-anchor="middle">starting</text><text x="730" y="246" font-family="'Segoe Print','Bradley Hand','Comic Sans MS','Chalkboard SE',cursive" font-size="14" fill="#868e96" text-anchor="start">+1 new, starting up</text><g><path d="M98.21641891263425 285.5573317680508 C99.05600006267429 300.0843741003424, 99.30900100156664 318.70806293226775, 98.8909612800926 334.3919513497502 M100.3731531875208 287.07751481663433 C100.40359122874588 300.3068109793589, 101.03819257738442 314.49455574285236, 100.85932417679578 333.4373381091282" stroke="#6741d9" stroke-width="1.8" fill="none"></path></g><g><g><path d="M99.15685257688165 333.79073865398766 C97.3736696464121 329.1162610807988, 95.72461100877452 326.38876662218706, 94.17484126081482 322.31512986854915 M100.1763996886462 334.50937064059076 C98.5776750254542 330.58115030209774, 97.31544821547163 327.1026180964945, 95.10534008471087 321.8638581548006" stroke="#6741d9" stroke-width="1.8" fill="none"></path></g><g><path d="M100.64262956969439 333.2519587183744 C101.95851257597887 330.73082879138104, 103.72180360658533 326.4987461264789, 105.40394381897733 321.4791443298132 M100.35909359578044 334.1269619172439 C101.45053166404482 330.2481296857428, 103.2423378337026 326.2199174287557, 104.88531723527446 321.7353224089489" stroke="#6741d9" stroke-width="1.8" fill="none"></path></g></g><text x="50" y="390" font-family="'Segoe Print','Bradley Hand','Comic Sans MS','Chalkboard SE',cursive" font-size="16" fill="#1e1e1e" font-weight="bold" text-anchor="start">ready</text><g><path d="M170.50141505748033 343.40623963326215 L286.1933371976018 344.1798654362559 L287.0844735100865 421.8208053871989 L172.09684547930956 419.22813175171615" stroke="none" stroke-width="0" fill="#f1f3f5"></path><path d="M169.6887523457408 345.764481253922 C191.83774176985025 345.48244830796716, 216.97831292003394 342.9655249280691, 283.84357445687056 341.9826075986028 M170.851444170624 343.66156019195915 C201.2248210556805 344.0911926446736, 230.76775131598117 343.61054033620957, 286.8945794560015 344.6449206493795 M285.38114655464886 342.9253394559026 C287.24511543123725 371.40424495786425, 288.2968463978052 401.7746986165643, 287.28541171997784 419.3091350510716 M286.73020930066707 343.5331524990499 C285.4704166955173 363.13402187749745, 286.7351605719745 382.4407651267946, 286.7713891722262 420.72673253044485 M287.21205852478744 420.4770500138402 C260.81818680316206 418.046500096941, 239.818924151361 418.42180999341014, 172.12899916619062 418.11875118762254 M285.7549621321261 418.9770798586309 C240.9275370426476 420.52930016890167, 197.70330790653824 421.63370798006656, 168.9613985039294 419.26718317493794 M169.20292380303144 417.93489613085984 C172.01207898802755 395.1549454972148, 171.98969191260338 374.11507817655803, 171.28795984238386 343.1095517113805 M169.26068801656365 421.0712475441396 C169.86000332869887 394.4346383146942, 171.22164509333967 369.5819791279733, 170.36599905267357 342.9402716062963" stroke="#868e96" stroke-width="1.8" fill="none"></path></g><text x="228" y="384" font-family="'Segoe Print','Bradley Hand','Comic Sans MS','Chalkboard SE',cursive" font-size="16" fill="#1e1e1e" font-weight="bold" text-anchor="middle">v1</text><g><path d="M303.94821600280704 345.1346714977175 L418.5278663214296 344.2352017287165 L419.42264687381686 421.7872460130602 L303.3522964295 418.3009483937174" stroke="none" stroke-width="0" fill="#f1f3f5"></path><path d="M300.5818369273096 343.05031816326084 C329.78170971386135 346.73597052419785, 355.24143395610156 345.2798149498761, 418.60840396918354 342.2679964598268 M301.7416875271127 344.5986212553456 C329.8204816481098 345.7546142649874, 359.76374396216124 343.9391864788756, 418.30135084073993 344.1064333559945 M417.26829614676535 342.7233005102724 C416.44953571946024 372.50869036801157, 416.3533256092727 397.6035586040467, 420.0773098591715 417.8242120679468 M417.46366320531814 344.08658391255886 C417.88766588792953 368.08183491323143, 418.65157723651083 393.3145250694826, 417.04534476082773 419.0369499148801 M417.13396412171426 419.9821192678064 C373.9443056877702 419.8485698628783, 330.1208707798272 420.3606432009101, 299.88271210230886 419.59589055143294 M418.488206746988 419.8278838576749 C390.44506866093724 419.36398490711895, 365.11301742028445 419.35183890506477, 301.0866025893018 419.5935881854966 M300.6352495435625 418.93071730695664 C302.57354897347693 402.5826468948275, 303.7149815329671 380.16072966568174, 299.8782850150019 345.4959591563791 M301.6018599001691 420.5792410613969 C303.63619963155537 402.63739404622464, 302.1894988738135 383.22796909678726, 302.79740826170894 344.4942009510472" stroke="#868e96" stroke-width="1.8" fill="none"></path></g><text x="360" y="384" font-family="'Segoe Print','Bradley Hand','Comic Sans MS','Chalkboard SE',cursive" font-size="16" fill="#1e1e1e" font-weight="bold" text-anchor="middle">v1</text><g><path d="M434.0622718311846 344.72356311306356 L549.9150306917727 343.24652255997063 L549.2904923416675 420.9558246277273 L434.21060502305625 422.115067949146" stroke="none" stroke-width="0" fill="#b2f2bb"></path><path d="M434.05417036041615 345.257467649132 C469.7538709707558 345.3743819870829, 504.5973604910076 343.1929817595362, 549.5610171459615 344.25865270867945 M434.21997851021587 343.18266663067044 C458.5413144174963 345.80768435811103, 485.40663111396134 345.66990413283406, 550.3366061199456 343.11401589624586 M551.8222958706319 343.2439712740481 C550.2024716415524 373.5359448723495, 550.7062317171216 399.1077257521451, 551.5221747301518 421.29639916196464 M550.1451864231378 343.09383128397167 C551.0279902063936 373.635126626119, 550.3524085008233 401.84788917712865, 549.1723841775208 419.9566331099719 M551.6330689333379 419.47048115506766 C503.4617664076388 418.36795443842414, 456.4951414637267 418.50171381781104, 433.86228357777 420.6905825354159 M550.4992719758302 419.3575452994555 C510.72779642678796 420.992440855363, 472.9124354559928 421.58220045552554, 434.28080208189783 420.3972952913493 M436.0143948219717 421.2524513937533 C434.413640700984 393.30330544933673, 433.04723628680705 370.1488593645394, 432.90534271225334 343.3980631805956 M433.6036340940744 420.42135506384074 C433.2468002702683 391.5584742810577, 432.7791889931649 363.48578629307445, 433.09146188385785 344.9565957020968" stroke="#2f9e44" stroke-width="1.8" fill="none"></path></g><text x="492" y="376" font-family="'Segoe Print','Bradley Hand','Comic Sans MS','Chalkboard SE',cursive" font-size="16" fill="#1e1e1e" font-weight="bold" text-anchor="middle">v2</text><text x="492" y="397" font-family="'Segoe Print','Bradley Hand','Comic Sans MS','Chalkboard SE',cursive" font-size="11" fill="#1e1e1e" text-anchor="middle">ready</text><text x="730" y="388" font-family="'Segoe Print','Bradley Hand','Comic Sans MS','Chalkboard SE',cursive" font-size="14" fill="#868e96" text-anchor="start">new is ready, one old cut</text><g><path d="M98.59883722662926 429.2717666208744 C100.50877495145798 440.2405164778233, 98.66815777158737 452.5334423601627, 101.86624349951744 475.83996520638465 M98.9765604764223 428.75075738132 C99.78709424054624 444.3348562449217, 99.5230934432745 462.72068545520307, 100.40711667835713 475.3291809767485" stroke="#6741d9" stroke-width="1.8" fill="none"></path></g><g><g><path d="M99.33763214349747 476.60119876623156 C99.0494204112302 473.5084347167847, 96.90656606701519 471.0215131607534, 95.58133830999748 464.0541909644127 M99.51619222521782 476.3549034893513 C97.63901511378596 471.2195484774608, 95.59614281448432 467.4054595974246, 94.89156926726714 463.81272932858474" stroke="#6741d9" stroke-width="1.8" fill="none"></path></g><g><path d="M100.82340913631022 476.06241883061824 C100.37251148753637 473.06678017129167, 102.7301774578898 471.15527040896995, 104.73044086815997 463.2182054256768 M99.69888613235206 475.9724947660044 C102.45349774719362 471.92694475381006, 104.17636192276443 466.52317582238993, 105.71154641783073 463.68419358273303" stroke="#6741d9" stroke-width="1.8" fill="none"></path></g></g><text x="50" y="532" font-family="'Segoe Print','Bradley Hand','Comic Sans MS','Chalkboard SE',cursive" font-size="16" fill="#1e1e1e" font-weight="bold" text-anchor="start">continue</text><g><path d="M168.80443931631743 485.4902379591018 L284.07652380280194 486.680485053733 L287.6940287452191 560.4615604717285 L171.18553080372513 562.3574266154319" stroke="none" stroke-width="0" fill="#f1f3f5"></path><path d="M170.0711706597358 485.0789161067456 C206.47035474143922 484.6272163757384, 241.86514009572568 484.67008218851686, 286.8188566762954 487.8306214552373 M169.4548514595255 485.33480275664476 C207.90381272565574 487.1044946374819, 246.53529256936162 487.5996570947096, 286.44237195756284 486.53676351699977 M286.68429504223167 486.8059835653752 C287.44847940782904 514.2177083853633, 285.3521500406682 541.2202271964402, 285.85676934309305 560.5129604440183 M285.9897560765967 486.5155733982101 C286.04896316178593 510.49500176478176, 285.4549022937611 536.8479815000668, 285.55350242760034 562.5156826952473 M286.330383368209 559.9355668168515 C255.21414856724442 560.3261081650614, 226.41795351542532 559.3249256685137, 171.40099800415337 561.5746584873647 M286.5324676623568 562.1465296247974 C257.9759797243401 562.6154087000951, 229.11068956311792 562.8108851069078, 169.46340055968614 562.6084166089073 M168.95183065719903 561.4176536541432 C171.94031588350532 531.4652811128645, 171.85040054832695 499.3132484611124, 171.98651580400764 487.90437525324523 M169.60895667579024 561.9476970711723 C170.29780218640715 535.1217149855569, 168.36745935121922 507.0592378819361, 170.57362275030465 486.1437799552456" stroke="#868e96" stroke-width="1.8" fill="none"></path></g><text x="228" y="526" font-family="'Segoe Print','Bradley Hand','Comic Sans MS','Chalkboard SE',cursive" font-size="16" fill="#1e1e1e" font-weight="bold" text-anchor="middle">v1</text><g><path d="M303.318495144695 485.07912957444785 L419.8636881731451 485.6918058849871 L417.5618742130697 564.0301390863955 L302.04383939728143 561.7715461708606" stroke="none" stroke-width="0" fill="#b2f2bb"></path><path d="M303.54350409284234 487.2860655926168 C346.4425159983337 487.6656278386235, 391.2210666306317 486.98324899817703, 417.77146985307337 485.4212777040899 M301.93314244262876 486.11884813196957 C336.62464549504216 487.1575647306055, 372.1781797211617 487.1303747486681, 418.4776272367686 485.5443460572511 M416.8382947660983 487.3266543291509 C419.19501532992126 515.2449628897011, 417.69865614851716 542.7243943445385, 417.30163421407343 563.9851475380361 M418.6712792944163 485.5228207696229 C418.99568748025 516.0482934776694, 419.16213355807366 545.3813456077129, 417.6805418442935 561.235365890339 M416.4294881798327 563.8239287041127 C384.7316092871129 558.8454927406073, 352.79222419932483 561.8659962854147, 300.9805694796145 562.6693504713476 M418.543532891199 561.676191066578 C378.2587074901909 561.1814646483392, 336.9101075988263 561.9788466573685, 302.6576000522822 561.21212371476 M299.93097593560816 563.7393877409398 C303.7804076110125 541.7859396673739, 301.18265530216695 519.70137815997, 300.6135735012591 485.8064792774618 M301.61073086969554 561.7898110736162 C301.9148028251201 539.2427952203899, 300.9635494705707 517.7170550782233, 303.06767637245355 486.6061747062951" stroke="#2f9e44" stroke-width="1.8" fill="none"></path></g><text x="360" y="518" font-family="'Segoe Print','Bradley Hand','Comic Sans MS','Chalkboard SE',cursive" font-size="16" fill="#1e1e1e" font-weight="bold" text-anchor="middle">v2</text><text x="360" y="539" font-family="'Segoe Print','Bradley Hand','Comic Sans MS','Chalkboard SE',cursive" font-size="11" fill="#1e1e1e" text-anchor="middle">ready</text><g><path d="M433.62232400421055 484.40200724657626 L549.6917994821445 485.25280259307476 L548.8339703107252 561.3808690195904 L432.72844464425 562.7514225905761" stroke="none" stroke-width="0" fill="#ffec99"></path><path d="M432.97275539096444 487.8754772448912 C462.97256457079203 486.03835578629673, 489.56215093415227 486.05412242481407, 549.8126059537753 486.7019946897402 M433.06253129066897 485.24793188301845 C476.28072247216477 484.6851213974811, 520.0956159432419 484.1619797183134, 551.0020262611099 485.6096500339918 M547.802444220148 487.3849507654086 C549.2759035791903 512.4630355520175, 551.331588413909 539.3053379060701, 552.0159647887573 559.8363181019201 M549.7454948079773 485.57987586883826 C548.8766988318943 507.47275236984717, 550.0225658547662 529.021787604224, 549.1180171412416 562.2054248723201 M549.8009461825714 563.0731789017096 C506.01645853165536 563.6384547943175, 465.6813061697408 562.2065648013651, 434.1240681534633 562.4938358271495 M549.082310120482 561.1918257865124 C520.8176029914059 562.3615773606784, 494.4195261304267 562.3433583575971, 433.17990388395265 561.9403822782449 M435.2528743153438 561.496075960435 C432.0619234602153 540.1739703422412, 435.9740722994506 518.5410944985226, 434.11742752250285 487.1439387345687 M435.0527898502536 561.2188615920953 C434.30269944733305 543.006091069337, 434.3326483107202 523.6919536451809, 434.6461123925634 485.09130142657085" stroke="#f08c00" stroke-width="1.8" fill="none"></path></g><text x="492" y="518" font-family="'Segoe Print','Bradley Hand','Comic Sans MS','Chalkboard SE',cursive" font-size="16" fill="#1e1e1e" font-weight="bold" text-anchor="middle">v2</text><text x="492" y="539" font-family="'Segoe Print','Bradley Hand','Comic Sans MS','Chalkboard SE',cursive" font-size="11" fill="#1e1e1e" text-anchor="middle">starting</text><text x="730" y="530" font-family="'Segoe Print','Bradley Hand','Comic Sans MS','Chalkboard SE',cursive" font-size="14" fill="#868e96" text-anchor="start">repeat the swap</text><g><path d="M101.91742225717753 571.8897762166337 C100.20715193806589 588.574011498876, 101.23513489423692 605.4823787467554, 102.11783230733127 618.2833071874454 M100.01911325687543 570.816022633668 C99.66993793709204 585.8277986533008, 100.83510195178911 599.3608506700956, 101.07253681952133 617.8248151144944" stroke="#6741d9" stroke-width="1.8" fill="none"></path></g><g><g><path d="M100.9064177943021 618.8933487569541 C98.29775984251398 613.5319029635302, 96.75799403617836 608.3175174518345, 95.70027120096401 606.2637708100051 M100.00903535779565 618.3857561540976 C97.91472216952555 614.6019283881469, 96.79785738948613 610.126389035955, 95.2061315158175 606.047029102792" stroke="#6741d9" stroke-width="1.8" fill="none"></path></g><g><path d="M100.31219478711486 618.3545688213408 C101.1268048807735 613.1279114769204, 103.51351335095966 608.4889377589344, 104.84937375912651 605.4277852712692 M100.19172926492989 618.0033474307508 C102.22840013208838 614.2903442496671, 103.33646715607657 610.3051248460912, 104.98610866638109 605.9184933569402" stroke="#6741d9" stroke-width="1.8" fill="none"></path></g></g><text x="50" y="674" font-family="'Segoe Print','Bradley Hand','Comic Sans MS','Chalkboard SE',cursive" font-size="16" fill="#1e1e1e" font-weight="bold" text-anchor="start">done</text><g><path d="M168.36449148934335 629.5686820926145 L283.8532925931737 628.6867650868371 L287.23750671427695 705.2866048635915 L169.70337042491883 702.993781256862" stroke="none" stroke-width="0" fill="#b2f2bb"></path><path d="M168.98975569028408 627.6969257025048 C199.68904834147543 625.2911901749521, 226.8299305388704 627.5312228537947, 287.0704454841092 625.873963436298 M170.49740423997864 627.4000680089928 C202.4432207803242 629.0443316768519, 237.02427739864214 629.1541326801888, 284.9077920987271 629.0323976547458 M287.0644433917478 626.5469630567356 C286.52191134546695 653.1447990650311, 285.9775067374557 681.417839350365, 286.35055940169843 703.4528793839738 M285.5900644614361 629.0016179830767 C285.90407178728657 646.5326275085099, 287.13145964770393 664.0218799271621, 285.49913539132103 704.7644744575955 M284.49826061744244 703.5382645634934 C262.168840691261 705.5966085209549, 235.60411822143942 703.0297766520679, 171.6627825798467 703.3779117790982 M285.1155058070086 703.9808101118542 C244.86578628895802 703.9845452054107, 204.21778023755175 703.5720430089794, 170.5625023617409 704.151503595803 M168.19031015057118 706.0612782208249 C167.58219864273667 678.3359460057691, 168.37083656097053 652.1054835950956, 168.79860061425717 627.2502508072182 M171.0581124319695 704.9452035994269 C169.3473013634719 684.3693317738362, 170.1145186687745 667.2654052340425, 169.92827325901015 628.4784856797196" stroke="#2f9e44" stroke-width="1.8" fill="none"></path></g><text x="228" y="660" font-family="'Segoe Print','Bradley Hand','Comic Sans MS','Chalkboard SE',cursive" font-size="16" fill="#1e1e1e" font-weight="bold" text-anchor="middle">v2</text><text x="228" y="681" font-family="'Segoe Print','Bradley Hand','Comic Sans MS','Chalkboard SE',cursive" font-size="11" fill="#1e1e1e" text-anchor="middle">ready</text><g><path d="M304.13557523190974 626.7520195156336 L417.1340391486883 627.2037463337183 L416.0392749160528 701.8394727855921 L299.99083331525327 704.314960590005" stroke="none" stroke-width="0" fill="#b2f2bb"></path><path d="M300.9982558399439 628.8076499313116 C345.84729022681717 629.8488073692798, 387.0638203412295 626.600973068285, 419.6993652492762 628.859947809577 M301.01484071463346 628.57613607198 C342.2244699344039 627.1615368165374, 381.58860812634225 627.5878091611266, 418.0606750175357 628.6437714651227 M416.2954429775476 627.3279692023992 C419.14491522860527 654.685680821538, 419.500465899229 679.2740900725126, 419.717856708169 704.2611600250005 M418.61234928816555 627.512489040196 C418.5145582649827 651.5625650778413, 417.58270654417277 675.7219260886311, 418.7896945163608 703.9439992502332 M418.04691783487795 702.7708073943853 C376.64503177106377 702.7068853842735, 338.16552424728866 703.9725825774192, 302.23213979303836 702.8199497550726 M417.1321036502719 704.3753022745252 C381.3898779377341 704.8960291277766, 346.3169072911144 705.3863853346705, 302.15380160063506 703.1570642545819 M303.05902806818483 705.1438793510199 C303.5487362339974 684.016933837533, 302.77561869173053 665.287678143382, 302.3391871601343 628.5034068435431 M301.9607737228274 704.7083746030927 C301.7760023215413 686.2509521260857, 302.91185384780164 668.0521310284734, 301.56935369223356 628.0720778062939" stroke="#2f9e44" stroke-width="1.8" fill="none"></path></g><text x="360" y="660" font-family="'Segoe Print','Bradley Hand','Comic Sans MS','Chalkboard SE',cursive" font-size="16" fill="#1e1e1e" font-weight="bold" text-anchor="middle">v2</text><text x="360" y="681" font-family="'Segoe Print','Bradley Hand','Comic Sans MS','Chalkboard SE',cursive" font-size="11" fill="#1e1e1e" text-anchor="middle">ready</text><g><path d="M434.4394040914252 626.074897187762 L551.3621504576877 626.7647430418059 L551.7113710137085 703.5902027187869 L435.07543856222185 705.2948370097205" stroke="none" stroke-width="0" fill="#b2f2bb"></path><path d="M434.827507138066 629.397061583586 C457.97733879927546 628.221535316953, 485.4049046447501 630.0718464949219, 551.7405013499781 630.1406647952274 M434.3442295626737 627.7052198230289 C458.68054691152645 627.751493483413, 483.1060443484225 627.681814130772, 550.585074041877 628.7090754418634 M551.6595924315974 627.3862656386569 C549.2258034778744 651.9037534838542, 548.733398164621 675.8550336340442, 550.0321872828529 704.5123305888847 M549.6865648017265 627.5695441394113 C550.401969616627 645.1870239700191, 550.4495388408653 661.5623680851422, 550.2271698133088 704.9140582322143 M551.4183758376166 702.0200575919822 C521.1298810156062 704.4374474379838, 493.0546062177047 701.2507510933698, 435.37563846688715 702.6444351108745 M549.8708808795549 703.8909369944595 C526.1487734389492 706.076141840116, 501.6263258227147 705.7508970348991, 434.8761054323055 703.8853228180669 M433.9809264479205 702.900567570515 C436.23025208320024 682.4049645124003, 433.1670356890142 664.1273944819346, 435.84304118137806 629.84086630065 M433.2028327033855 704.1374251215718 C434.3574989437543 687.8142479750328, 434.2745526879512 671.827029595431, 433.14778971234335 628.7572045265697" stroke="#2f9e44" stroke-width="1.8" fill="none"></path></g><text x="492" y="660" font-family="'Segoe Print','Bradley Hand','Comic Sans MS','Chalkboard SE',cursive" font-size="16" fill="#1e1e1e" font-weight="bold" text-anchor="middle">v2</text><text x="492" y="681" font-family="'Segoe Print','Bradley Hand','Comic Sans MS','Chalkboard SE',cursive" font-size="11" fill="#1e1e1e" text-anchor="middle">ready</text><text x="730" y="672" font-family="'Segoe Print','Bradley Hand','Comic Sans MS','Chalkboard SE',cursive" font-size="14" fill="#868e96" text-anchor="start">3 new pods serving</text><g><path d="M49.74886960171163 776.5645442221314 C459.4411841078103 779.8796836402595, 869.6317422509939 780.0396123888671, 1189.8582910814137 776.688790917173 M49.64032461155206 775.6293242294714 C452.5650693958625 780.4098531515494, 855.1890962922946 779.9640994591609, 1190.2622338401154 776.3696962089464 M1187.9675918793305 776.4276071662083 C1190.6990239326074 795.5687077106909, 1191.4065589908673 809.6842583665624, 1188.9219170248136 830.6567047769204 M1191.0496112373658 775.7840388822369 C1188.4558462022878 793.3515285561793, 1190.0244293182232 813.5449386212043, 1190.4812486466951 832.5534246223979 M1190.8066341843455 832.5587125466019 C872.251477471292 826.7461724155069, 556.0523720125109 826.9288427107454, 50.37391256712377 832.3335276315361 M1189.9572045348957 831.5801039512083 C947.6896306399628 834.4597120941595, 704.4979428610578 834.8111386538461, 50.425801766999065 831.7170948119089 M47.93921700473875 831.1440357441082 C51.97332193600088 820.5902164148166, 48.29443159448057 807.5915234664454, 49.49715657588094 778.045074349083 M49.20638109119609 831.8216531264595 C49.59849156556502 816.496321704518, 49.27372427103892 801.6224905076436, 50.135896956641226 775.4819940286689" stroke="#6741d9" stroke-width="2.6" fill="none"></path></g><text x="74" y="800" font-family="'Segoe Print','Bradley Hand','Comic Sans MS','Chalkboard SE',cursive" font-size="14" fill="#1e1e1e" text-anchor="start">The readiness probe is what makes this safe. Kubernetes waits for the new pod to say it is ready before</text><text x="74" y="824" font-family="'Segoe Print','Bradley Hand','Comic Sans MS','Chalkboard SE',cursive" font-size="14" fill="#1e1e1e" text-anchor="start">removing an old one. maxUnavailable: 0 means capacity never drops below 3. Nobody sees an error.</text><g><path d="M943.4901082877469 58.45391014928027 C1009.5455732518818 57.85507015455461, 1076.5655481469587 57.288601791222, 1190.2261175905585 60.253545209345916 M943.850363363208 60.20531373082119 C995.1029827931665 57.473912087349454, 1047.4814453519593 58.62825208774833, 1189.6776508386336 60.4409719228845 M1189.7056495298314 60.88626888991578 C1190.9348729618775 155.5367965819035, 1188.8871423809805 252.92246943798506, 1190.2120791338448 359.60767701706817 M1189.9060621524247 60.36291448907023 C1192.6086982620486 121.76424095598647, 1192.1755734199887 183.58865054111826, 1189.6860092081665 359.8041734083491 M1189.3127432953352 360.5181233669057 C1138.9550160130855 359.2272056760964, 1088.4719898785058 359.1359878550883, 943.5917567398695 360.2271134442574 M1189.9255811298387 359.4605335688039 C1099.4120719127602 361.7342739562551, 1009.6866734413863 361.38966049389745, 944.5399239372717 360.4102490849415 M944.5924538309515 358.6996034601053 C942.4922569635777 251.7333616421009, 941.8758164408305 140.40984756851256, 944.7609708047265 59.19207895223723 M944.2266189245059 359.69555402567613 C942.3590544756019 279.1339426906651, 942.3912218295526 199.77358155519286, 943.8364588581234 59.32213287412292" stroke="#1971c2" stroke-width="2.6" fill="none"></path></g><text x="962" y="86" font-family="'Segoe Print','Bradley Hand','Comic Sans MS','Chalkboard SE',cursive" font-size="16" fill="#1971c2" font-weight="bold" text-anchor="start">THE THREE PROBES</text><text x="962" y="118" font-family="'Segoe Print','Bradley Hand','Comic Sans MS','Chalkboard SE',cursive" font-size="14" fill="#1e1e1e" font-weight="bold" text-anchor="start">startup</text><text x="962" y="138" font-family="'Segoe Print','Bradley Hand','Comic Sans MS','Chalkboard SE',cursive" font-size="12" fill="#1e1e1e" text-anchor="start">"has it finished booting?"</text><text x="962" y="160" font-family="'Segoe Print','Bradley Hand','Comic Sans MS','Chalkboard SE',cursive" font-size="12" fill="#1e1e1e" text-anchor="start">holds the others off</text><text x="962" y="200" font-family="'Segoe Print','Bradley Hand','Comic Sans MS','Chalkboard SE',cursive" font-size="14" fill="#2f9e44" font-weight="bold" text-anchor="start">readiness</text><text x="962" y="220" font-family="'Segoe Print','Bradley Hand','Comic Sans MS','Chalkboard SE',cursive" font-size="12" fill="#1e1e1e" text-anchor="start">"should it get traffic?"</text><text x="962" y="242" font-family="'Segoe Print','Bradley Hand','Comic Sans MS','Chalkboard SE',cursive" font-size="12" fill="#1e1e1e" font-weight="bold" text-anchor="start">fail  -&gt;  removed from Service</text><text x="962" y="264" font-family="'Segoe Print','Bradley Hand','Comic Sans MS','Chalkboard SE',cursive" font-size="12" fill="#1e1e1e" text-anchor="start">pod keeps running</text><text x="962" y="304" font-family="'Segoe Print','Bradley Hand','Comic Sans MS','Chalkboard SE',cursive" font-size="14" fill="#e03131" font-weight="bold" text-anchor="start">liveness</text><text x="962" y="324" font-family="'Segoe Print','Bradley Hand','Comic Sans MS','Chalkboard SE',cursive" font-size="12" fill="#1e1e1e" text-anchor="start">"is it broken beyond repair?"</text><text x="962" y="346" font-family="'Segoe Print','Bradley Hand','Comic Sans MS','Chalkboard SE',cursive" font-size="12" fill="#1e1e1e" font-weight="bold" text-anchor="start">fail  -&gt;  container RESTARTED</text></svg>