<svg xmlns="http://www.w3.org/2000/svg" viewBox="0 0 1240 900" width="1240" height="900"><rect width="1240" height="900" fill="#ffffff"></rect><text x="620" y="29" font-family="'Segoe Print','Bradley Hand','Comic Sans MS','Chalkboard SE',cursive" font-size="23" fill="#1e1e1e" font-weight="bold" text-anchor="middle">The whole journey  —  one application, six ways to run it</text><g><path d="M39.708933373242616 58.00285979434848 C355.35842067942025 54.015458638340235, 668.6414829672873 53.725360777050255, 1200.461045270711 57.91626249954104 M39.75131639324129 57.873618150129914 C470.2469295876474 55.01448591523468, 901.0143478205056 54.805544939568634, 1199.5741021116824 58.04303301610052 M1200.3539997238665 56.32067076377571 C1198.6819978720785 80.08834712691605, 1199.281968057835 103.82635239325464, 1201.6448648709804 175.27218709401785 M1199.5815232178197 58.10724737141281 C1201.414923713483 87.731865051575, 1202.1754306593314 115.99051078502089, 1199.0270394166932 173.81968319509178 M1200.1196419246494 174.6753447549045 C944.854671305865 179.78278242786527, 688.565082309395 179.63145684440732, 39.91182859018445 173.55787679359318 M1199.564426091537 174.25186457671225 C847.6276982092112 172.51667493031323, 496.2689814200251 172.7574371711999, 40.037679797038436 173.88148284234106 M41.17914527840912 174.12173408679664 C39.07339065741897 140.28172541297974, 40.96555368375182 108.51026341579855, 38.82705769725144 58.10210402421653 M38.9017741939053 174.94211400244384 C39.255268360622225 135.6149839507416, 38.03435784126073 96.34562462810426, 39.39405362214893 57.36239475104958" stroke="#e03131" stroke-width="2.6" fill="none"></path></g><g><path d="M57.57108374256641 71.38333742301911 L185.08074655551462 72.71698124688119 L185.00176820177586 156.75286792200058 L56.48746289033443 157.12117933314295" stroke="none" stroke-width="0" fill="#ffc9c9"></path><path d="M53.808500149659814 70.9107242288068 C95.45346519686282 72.73238054470345, 137.02433642540126 71.64451356486603, 184.42891976516694 72.78598437327892 M55.61743647465482 72.07606806298718 C89.47777441097423 70.49827759044618, 123.2573812414892 70.8147489316985, 186.05288291880862 72.71137381037697 M185.43099958579987 70.58100614566357 C185.54180211438313 88.56379148997367, 186.44175739301818 106.50207018908112, 185.16729730647057 156.6082806410268 M185.92228482672945 71.61087105711923 C186.5869612508282 96.10940257133916, 186.6277216696009 120.75897616548465, 186.19055912503973 158.2795247926377 M185.34865721743554 159.43254283089192 C142.84185328111053 155.74740732440725, 98.69273042846471 159.57993638643993, 56.76935721319169 159.64203797597438 M184.9165978432633 157.29449216267093 C140.25082184737548 156.1334615650177, 94.45258745076133 157.03631996834278, 56.69129923889413 158.10556065877898 M56.668717917613684 159.28260113019496 C56.85862468997762 127.79138790369032, 55.2968692294769 101.60299469213932, 55.34058654587716 71.0531560363248 M56.002661290857944 158.86317100366577 C56.55155135378539 124.42933424571528, 56.92018557474315 88.98215358136221, 56.741080433223395 72.69359212657437" stroke="#e03131" stroke-width="1.8" fill="none"></path></g><text x="121" y="104" font-family="'Segoe Print','Bradley Hand','Comic Sans MS','Chalkboard SE',cursive" font-size="16" fill="#1e1e1e" font-weight="bold" text-anchor="middle">M02</text><text x="121" y="127" font-family="'Segoe Print','Bradley Hand','Comic Sans MS','Chalkboard SE',cursive" font-size="11" fill="#1e1e1e" text-anchor="middle"></text><text x="202" y="91" font-family="'Segoe Print','Bradley Hand','Comic Sans MS','Chalkboard SE',cursive" font-size="17" fill="#e03131" font-weight="bold" text-anchor="start">EC2, by hand</text><text x="202" y="116" font-family="'Segoe Print','Bradley Hand','Comic Sans MS','Chalkboard SE',cursive" font-size="12" fill="#1e1e1e" font-weight="bold" text-anchor="start">finds catalog:</text><text x="330" y="117" font-family="'Segoe Print','Bradley Hand','Comic Sans MS','Chalkboard SE',cursive" font-size="13" fill="#1e1e1e" text-anchor="start">hardcoded IP  10.0.11.87</text><text x="202" y="142" font-family="'Segoe Print','Bradley Hand','Comic Sans MS','Chalkboard SE',cursive" font-size="12" fill="#1e1e1e" font-weight="bold" text-anchor="start">recovers by:</text><text x="330" y="143" font-family="'Segoe Print','Bradley Hand','Comic Sans MS','Chalkboard SE',cursive" font-size="13" fill="#1e1e1e" text-anchor="start">systemd restarts the process</text><text x="700" y="116" font-family="'Segoe Print','Bradley Hand','Comic Sans MS','Chalkboard SE',cursive" font-size="12" fill="#1e1e1e" font-weight="bold" text-anchor="start">deploy:</text><text x="778" y="117" font-family="'Segoe Print','Bradley Hand','Comic Sans MS','Chalkboard SE',cursive" font-size="13" fill="#1e1e1e" text-anchor="start">~40 manual steps</text><text x="700" y="142" font-family="'Segoe Print','Bradley Hand','Comic Sans MS','Chalkboard SE',cursive" font-size="12" fill="#1e1e1e" font-weight="bold" text-anchor="start">still broken:</text><text x="806" y="143" font-family="'Segoe Print','Bradley Hand','Comic Sans MS','Chalkboard SE',cursive" font-size="13" fill="#e03131" text-anchor="start">server dies  -&gt;  outage nobody notices</text><g><path d="M39.86530075870454 189.37292342700064 C370.58828718669713 183.6768185958594, 699.0768188875169 183.97548961970506, 1200.1427260645478 189.1298617915064 M40.35965389866382 190.21334240119904 C382.1455772385374 191.05583065523953, 725.456199255474 191.3638041223511, 1199.8543722798304 189.84431968729942 M1198.8881477972493 190.9823210189119 C1199.6698931952892 232.41455996837468, 1202.4217583259522 280.2718670101836, 1201.5835198005661 307.28429312799125 M1199.8633548204787 189.60053932769225 C1199.7160679099493 215.61435692599045, 1198.6585305300882 238.68092215536163, 1199.099711797107 306.9881581525318 M1200.3864347489923 305.3517686084658 C959.5961535850912 302.1596579307646, 719.4144987487048 301.230747014913, 40.808371010646226 305.9170549038798 M1199.8820674409344 305.9974413482472 C830.9609111541882 306.63032217236605, 462.2799833296611 306.86865521284193, 40.07500031489879 306.0202004794404 M39.39677005019039 306.687092740275 C38.036634846547244 271.1906813917681, 38.2995141526252 234.7258933113888, 41.066200204752384 189.75008360240608 M40.35270414398983 305.5817345331423 C37.89222210849152 265.2160104504786, 38.147961210259055 225.27426812974736, 39.24275775300339 190.1594952265732" stroke="#f08c00" stroke-width="2.6" fill="none"></path></g><g><path d="M55.24519174396992 205.05067317187786 L184.24467971622943 203.73458211123943 L186.81309163868428 290.7464909285307 L53.863611105084416 291.57165353000164" stroke="none" stroke-width="0" fill="#ffec99"></path><path d="M54.19941861331463 205.7358833104372 C96.82979899048806 201.99253803366423, 139.71601127684116 202.37659326666594, 188.03312174975872 202.81998260319233 M54.938280238211156 204.92537869066 C105.67436914891005 204.82676553332806, 155.0619610503316 204.23552298152447, 186.75355833917857 204.21459048837423 M183.96514765918255 205.24265640079975 C184.13815183998346 235.51110358834268, 187.19000206352473 267.7897833198309, 185.10595223605634 288.6203866750002 M186.20411642938853 203.10416301339865 C185.40402200791834 225.12321363240483, 185.82673810098171 245.7120259091258, 186.26323150545358 289.2479997500777 M186.01563927829267 288.1236024647951 C143.09897083044052 289.60134230715033, 102.62309522926806 291.4899080381989, 54.610713264346124 288.13998325169086 M185.7107012167573 290.8584340915084 C138.4220081076026 289.18853616333007, 89.15640002042055 290.0853215656281, 56.78460053354502 290.4523547515273 M54.88634268939495 291.8479597836733 C58.78131660231352 259.51211948394774, 55.5902774215579 229.4421757906675, 57.5797290533781 202.70113561451436 M55.25359124094248 289.50279153436423 C55.21066465258598 271.8061136379838, 57.055948494672776 253.46230286806824, 56.58978456407785 203.29069260209798" stroke="#f08c00" stroke-width="1.8" fill="none"></path></g><text x="121" y="236" font-family="'Segoe Print','Bradley Hand','Comic Sans MS','Chalkboard SE',cursive" font-size="16" fill="#1e1e1e" font-weight="bold" text-anchor="middle">M03-04</text><text x="121" y="259" font-family="'Segoe Print','Bradley Hand','Comic Sans MS','Chalkboard SE',cursive" font-size="11" fill="#1e1e1e" text-anchor="middle"></text><text x="202" y="223" font-family="'Segoe Print','Bradley Hand','Comic Sans MS','Chalkboard SE',cursive" font-size="17" fill="#f08c00" font-weight="bold" text-anchor="start">ALB + Auto Scaling</text><text x="202" y="248" font-family="'Segoe Print','Bradley Hand','Comic Sans MS','Chalkboard SE',cursive" font-size="12" fill="#1e1e1e" font-weight="bold" text-anchor="start">finds catalog:</text><text x="330" y="249" font-family="'Segoe Print','Bradley Hand','Comic Sans MS','Chalkboard SE',cursive" font-size="13" fill="#1e1e1e" text-anchor="start">still a hardcoded IP</text><text x="202" y="274" font-family="'Segoe Print','Bradley Hand','Comic Sans MS','Chalkboard SE',cursive" font-size="12" fill="#1e1e1e" font-weight="bold" text-anchor="start">recovers by:</text><text x="330" y="275" font-family="'Segoe Print','Bradley Hand','Comic Sans MS','Chalkboard SE',cursive" font-size="13" fill="#1e1e1e" text-anchor="start">ASG replaces a dead instance in 2-4 min</text><text x="700" y="248" font-family="'Segoe Print','Bradley Hand','Comic Sans MS','Chalkboard SE',cursive" font-size="12" fill="#1e1e1e" font-weight="bold" text-anchor="start">deploy:</text><text x="778" y="249" font-family="'Segoe Print','Bradley Hand','Comic Sans MS','Chalkboard SE',cursive" font-size="13" fill="#1e1e1e" text-anchor="start">bake AMI  -&gt;  12-22 minutes</text><text x="700" y="274" font-family="'Segoe Print','Bradley Hand','Comic Sans MS','Chalkboard SE',cursive" font-size="12" fill="#1e1e1e" font-weight="bold" text-anchor="start">still broken:</text><text x="806" y="275" font-family="'Segoe Print','Bradley Hand','Comic Sans MS','Chalkboard SE',cursive" font-size="13" fill="#e03131" text-anchor="start">one whole VM per service</text><g><path d="M40.02166814416647 322.5029870596528 C385.818153693974 327.34777855337853, 731.2721548077465 326.47521846235986, 1199.8244068583847 322.10346108347176 M40.08799140408635 321.6730666522682 C294.0442248894274 327.97717539524433, 549.0180506904424 327.9220633051336, 1200.1346424479782 321.64560635849836 M1201.822295870632 321.2439712740481 C1200.6577885185002 365.9407728098333, 1201.1615485940695 405.91738162711266, 1201.5221747301518 439.29639916196464 M1200.1451864231378 321.09383128397167 C1201.0796121064154 366.69684880040586, 1200.4040304008454 409.97133352570233, 1199.1723841775208 437.9566331099719 M1200.6532275733352 437.7881924620271 C742.3376358643175 435.02613343366386, 284.5039151880144 435.0796371854186, 39.944913431108 438.27623301416634 M1200.1997087903321 437.7430181197822 C814.2941240991652 440.7439694144189, 429.1709852392971 440.97987325448395, 40.11232083275914 438.1589181165397 M42.014394821971656 439.2524513937533 C40.06227903567552 397.69963737055656, 38.69587462149858 360.94152320697907, 38.90534271225333 321.3980631805956 M39.603634094074366 438.42135506384074 C38.7291758563608 394.8170369502157, 38.26156457925737 352.0029116313904, 39.091461883857846 322.9565957020968" stroke="#1971c2" stroke-width="2.6" fill="none"></path></g><g><path d="M57.31929974537343 334.3180089207366 L187.80861287694424 334.7521829755977 L184.2244150755927 420.3401139350608 L55.63975931983441 421.62212772686036" stroke="none" stroke-width="0" fill="#a5d8ff"></path><path d="M54.59033707696945 336.1610423920676 C98.2061327841133 335.652695522625, 142.40768612828106 333.10867296846584, 187.2373237343505 337.25398083310574 M56.459124001767485 335.57468931833284 C95.87096388684586 333.52325347620996, 134.866540859174 334.22429703135043, 185.25423375954853 335.7178071663715 M186.89929573256524 335.5043066559359 C185.0049015655838 365.2584156867117, 185.8086467340313 399.07749645058067, 185.04460716564208 420.6324927089736 M186.4859480320476 336.7974549696781 C186.49148276500853 354.13702469347044, 185.09615453236253 370.665075652767, 186.33590388586745 422.41647470751775 M186.68262133914976 421.21466209869834 C147.75608837977052 423.4552772898935, 106.55346003007142 423.39987968995797, 56.85206931550056 421.03792852740736 M186.5048045902513 422.22237602034585 C136.5931943678297 422.24361076164246, 86.06021259007976 420.93432316291336, 56.8779018281959 422.79914884427563 M57.50396746117622 420.0133184371516 C54.03360851464942 391.23285106420514, 53.61328561363891 357.2813568891957, 55.418871560879055 334.3491151927039 M56.70452119102701 422.34241206506266 C56.06977795138657 401.9828930302523, 57.191711414602395 381.3424521547742, 56.43848869493231 336.0877930776216" stroke="#1971c2" stroke-width="1.8" fill="none"></path></g><text x="121" y="368" font-family="'Segoe Print','Bradley Hand','Comic Sans MS','Chalkboard SE',cursive" font-size="16" fill="#1e1e1e" font-weight="bold" text-anchor="middle">M06-07</text><text x="121" y="391" font-family="'Segoe Print','Bradley Hand','Comic Sans MS','Chalkboard SE',cursive" font-size="11" fill="#1e1e1e" text-anchor="middle"></text><text x="202" y="355" font-family="'Segoe Print','Bradley Hand','Comic Sans MS','Chalkboard SE',cursive" font-size="17" fill="#1971c2" font-weight="bold" text-anchor="start">Docker containers</text><text x="202" y="380" font-family="'Segoe Print','Bradley Hand','Comic Sans MS','Chalkboard SE',cursive" font-size="12" fill="#1e1e1e" font-weight="bold" text-anchor="start">finds catalog:</text><text x="330" y="381" font-family="'Segoe Print','Bradley Hand','Comic Sans MS','Chalkboard SE',cursive" font-size="13" fill="#1e1e1e" text-anchor="start">container name on ONE host</text><text x="202" y="406" font-family="'Segoe Print','Bradley Hand','Comic Sans MS','Chalkboard SE',cursive" font-size="12" fill="#1e1e1e" font-weight="bold" text-anchor="start">recovers by:</text><text x="330" y="407" font-family="'Segoe Print','Bradley Hand','Comic Sans MS','Chalkboard SE',cursive" font-size="13" fill="#1e1e1e" text-anchor="start">restart: always, on this host only</text><text x="700" y="380" font-family="'Segoe Print','Bradley Hand','Comic Sans MS','Chalkboard SE',cursive" font-size="12" fill="#1e1e1e" font-weight="bold" text-anchor="start">deploy:</text><text x="778" y="381" font-family="'Segoe Print','Bradley Hand','Comic Sans MS','Chalkboard SE',cursive" font-size="13" fill="#1e1e1e" text-anchor="start">docker compose up  —  seconds</text><text x="700" y="406" font-family="'Segoe Print','Bradley Hand','Comic Sans MS','Chalkboard SE',cursive" font-size="12" fill="#1e1e1e" font-weight="bold" text-anchor="start">still broken:</text><text x="806" y="407" font-family="'Segoe Print','Bradley Hand','Comic Sans MS','Chalkboard SE',cursive" font-size="13" fill="#e03131" text-anchor="start">host dies  -&gt;  everything dies</text><g><path d="M40.178035529628396 453.87305069230496 C401.04802020125095 458.76913851089773, 761.707490727976 458.4853473050147, 1199.5060876522214 453.31706037543717 M39.81632890950888 454.0127909033373 C437.94287254031747 451.76892013524923, 836.5799021254107 452.23072248791607, 1200.4149126161262 454.32689302969726 M1200.3564439440147 455.90562152918426 C1198.5832838417114 495.0669856512919, 1196.8389388621868 531.5628962440416, 1201.4608296597376 571.3085051959381 M1200.4270180257968 454.7871232402511 C1200.243156302882 492.37934067482126, 1202.1495302716025 532.661744896043, 1199.2450565579347 568.9251080674119 M1199.160020397678 570.2246163155884 C758.8391181435436 569.6526089365632, 315.3533316273241 568.9285273559243, 40.84145585156977 570.635411124453 M1199.6373501397297 570.3685948913172 C797.6273370441422 574.8576166564718, 396.0619871489331 574.2110912961259, 40.1496413506195 570.297635753639 M40.23201959375292 571.8178100472317 C37.687923224803804 528.608593349345, 39.092235090371965 482.7571531025693, 41.14448521975428 453.0460427587852 M41.05456404415891 569.0609755945392 C40.42852960423008 524.4180634499527, 41.43756794825569 480.93155513303356, 38.940166014712304 453.55369617762045" stroke="#6741d9" stroke-width="2.6" fill="none"></path></g><g><path d="M54.99340774677694 467.98534466959535 L186.97254603765904 470.1697838399559 L186.03573851250113 554.3337369415909 L57.415907534584406 556.072601923719" stroke="none" stroke-width="0" fill="#d0bfff"></path><path d="M54.98125554062426 466.586201473698 C99.58246657773853 468.34485301158577, 145.09936097972096 467.27275267026573, 186.44152571894227 467.2879790630192 M55.77996776532382 468.42399994600567 C86.06755862478167 467.8517414190918, 114.67112066801637 467.6450710811764, 185.95490917991847 467.22102384436874 M185.4334438059479 470.16595691107216 C185.87165129118415 499.40572778508067, 184.42729140453787 525.9652095813303, 184.98326209522784 552.644598742947 M186.76777963470667 468.2907469259575 C187.57894352209865 500.3508357545361, 186.56557096374334 530.0181253964082, 186.4085762662813 553.3849496649578 M187.34960340000688 554.3057217326016 C148.0132059291005 557.3092122726366, 110.4838248308748 555.3098513417169, 54.69342536665499 553.9358738031239 M185.0989079637453 553.5863179491832 C134.7643806280568 555.2986853599548, 82.96402515973895 553.9833247601986, 56.97120312284678 552.9459429370239 M55.721592232957484 552.57867709063 C55.95630042698532 535.7535826444625, 53.90669380571991 519.5205379877239, 57.65801406838 465.99709477089345 M55.95545114111155 552.9820325957611 C56.928891250187164 532.1596724225209, 55.127474334532025 511.4226014414802, 56.28719282578677 468.8848935531452" stroke="#6741d9" stroke-width="1.8" fill="none"></path></g><text x="121" y="500" font-family="'Segoe Print','Bradley Hand','Comic Sans MS','Chalkboard SE',cursive" font-size="16" fill="#1e1e1e" font-weight="bold" text-anchor="middle">M10</text><text x="121" y="523" font-family="'Segoe Print','Bradley Hand','Comic Sans MS','Chalkboard SE',cursive" font-size="11" fill="#1e1e1e" text-anchor="middle"></text><text x="202" y="487" font-family="'Segoe Print','Bradley Hand','Comic Sans MS','Chalkboard SE',cursive" font-size="17" fill="#6741d9" font-weight="bold" text-anchor="start">Kubernetes Deployments</text><text x="202" y="512" font-family="'Segoe Print','Bradley Hand','Comic Sans MS','Chalkboard SE',cursive" font-size="12" fill="#1e1e1e" font-weight="bold" text-anchor="start">finds catalog:</text><text x="330" y="513" font-family="'Segoe Print','Bradley Hand','Comic Sans MS','Chalkboard SE',cursive" font-size="13" fill="#1e1e1e" text-anchor="start">still wrong  —  a pod IP</text><text x="202" y="538" font-family="'Segoe Print','Bradley Hand','Comic Sans MS','Chalkboard SE',cursive" font-size="12" fill="#1e1e1e" font-weight="bold" text-anchor="start">recovers by:</text><text x="330" y="539" font-family="'Segoe Print','Bradley Hand','Comic Sans MS','Chalkboard SE',cursive" font-size="13" fill="#1e1e1e" text-anchor="start">pod replaced in 5-15 seconds</text><text x="700" y="512" font-family="'Segoe Print','Bradley Hand','Comic Sans MS','Chalkboard SE',cursive" font-size="12" fill="#1e1e1e" font-weight="bold" text-anchor="start">deploy:</text><text x="778" y="513" font-family="'Segoe Print','Bradley Hand','Comic Sans MS','Chalkboard SE',cursive" font-size="13" fill="#1e1e1e" text-anchor="start">rolling update, no capacity loss</text><text x="700" y="538" font-family="'Segoe Print','Bradley Hand','Comic Sans MS','Chalkboard SE',cursive" font-size="12" fill="#1e1e1e" font-weight="bold" text-anchor="start">still broken:</text><text x="806" y="539" font-family="'Segoe Print','Bradley Hand','Comic Sans MS','Chalkboard SE',cursive" font-size="13" fill="#e03131" text-anchor="start">nothing reachable from outside</text><g><path d="M40.33440291509032 585.2431143249571 C416.2778867085279 588.430498468417, 792.1428266482056 588.7354761476696, 1199.187768446058 586.2906596674025 M40.424666414931416 586.3525151544064 C349.84152019120756 588.6902648752541, 660.1417535603792 588.7889816706986, 1199.8151827842742 586.1281797008961 M1198.8905920173972 586.1672717843205 C1199.5711791649223 624.1931984927505, 1199.978729130304 661.6084108609706, 1201.3994845893235 703.3206112299115 M1200.708849628456 586.2804151965305 C1198.5443004993483 620.2618325492367, 1198.6326301423594 655.3521562663839, 1199.3177289383486 702.093583024852 M1199.4268132220209 702.6610401691496 C773.5806004227697 704.2790844394624, 346.20274806663394 704.5374175264299, 39.97799827203155 701.2345892347396 M1199.9549914891272 702.1141716628522 C780.9605499891192 695.8416638985246, 362.0729890585691 696.072709337768, 40.18696186847985 702.4363533907384 M38.44964436553418 699.9831687007099 C39.71356741393208 655.1175493281335, 39.48859555924535 608.9727829981595, 38.983627727255225 584.6940223369747 M40.30549399424344 701.9005961252376 C41.26548335209936 677.2190899496898, 41.55117131725401 654.0601986346767, 40.988870145566764 586.350796653144" stroke="#2f9e44" stroke-width="2.6" fill="none"></path></g><g><path d="M57.06751574818045 601.6526804184541 L186.13647919837385 601.1873847043141 L187.84706194940955 683.927359948121 L54.792055749334395 686.1230761205777" stroke="none" stroke-width="0" fill="#b2f2bb"></path><path d="M55.372174004279074 601.4113605553284 C100.95880037136376 602.0050105005465, 147.79103583116085 602.4048323720656, 185.64572770353408 601.7219772929326 M55.10081152888015 599.0733105736784 C102.26415336271748 602.1802293619736, 148.67570047685876 601.0658451310023, 186.65558460028842 600.9242405223661 M183.96759187933057 600.4276071662083 C186.73840101678445 629.1530398834498, 187.44593607504441 652.8529227120802, 184.92191702481358 684.6567047769204 M187.04961123736575 599.7840388822369 C184.1960042791888 627.1646468156018, 185.76458739512412 657.1711751400493, 186.48124864669518 686.5534246223979 M188.016585460864 687.3967813665047 C148.2703234784305 683.3311472553797, 114.41418963167817 683.787822993476, 56.934781417809425 686.8338190788403 M185.8930113372393 684.9502598780207 C158.93556688828394 686.1537599582673, 129.66783772939817 687.032326357484, 57.064504417497666 685.2927370297723 M53.93921700473875 685.1440357441082 C57.87899233932122 667.4743142247199, 54.200101997800914 647.3597190862521, 55.49715657588094 602.045074349083 M55.20638109119609 685.8216531264595 C55.58800454898775 662.3364518147893, 55.26323725446165 639.3027507281862, 56.135896956641226 599.4819940286689" stroke="#2f9e44" stroke-width="1.8" fill="none"></path></g><text x="121" y="632" font-family="'Segoe Print','Bradley Hand','Comic Sans MS','Chalkboard SE',cursive" font-size="16" fill="#1e1e1e" font-weight="bold" text-anchor="middle">M11</text><text x="121" y="655" font-family="'Segoe Print','Bradley Hand','Comic Sans MS','Chalkboard SE',cursive" font-size="11" fill="#1e1e1e" text-anchor="middle"></text><text x="202" y="619" font-family="'Segoe Print','Bradley Hand','Comic Sans MS','Chalkboard SE',cursive" font-size="17" fill="#2f9e44" font-weight="bold" text-anchor="start">Services</text><text x="202" y="644" font-family="'Segoe Print','Bradley Hand','Comic Sans MS','Chalkboard SE',cursive" font-size="12" fill="#1e1e1e" font-weight="bold" text-anchor="start">finds catalog:</text><text x="330" y="645" font-family="'Segoe Print','Bradley Hand','Comic Sans MS','Chalkboard SE',cursive" font-size="13" fill="#1e1e1e" text-anchor="start">DNS name across the cluster</text><text x="202" y="670" font-family="'Segoe Print','Bradley Hand','Comic Sans MS','Chalkboard SE',cursive" font-size="12" fill="#1e1e1e" font-weight="bold" text-anchor="start">recovers by:</text><text x="330" y="671" font-family="'Segoe Print','Bradley Hand','Comic Sans MS','Chalkboard SE',cursive" font-size="13" fill="#1e1e1e" text-anchor="start">sick pod leaves traffic in ~10s</text><text x="700" y="644" font-family="'Segoe Print','Bradley Hand','Comic Sans MS','Chalkboard SE',cursive" font-size="12" fill="#1e1e1e" font-weight="bold" text-anchor="start">deploy:</text><text x="778" y="645" font-family="'Segoe Print','Bradley Hand','Comic Sans MS','Chalkboard SE',cursive" font-size="13" fill="#1e1e1e" text-anchor="start">zero failed requests, measured</text><text x="700" y="670" font-family="'Segoe Print','Bradley Hand','Comic Sans MS','Chalkboard SE',cursive" font-size="12" fill="#1e1e1e" font-weight="bold" text-anchor="start">still broken:</text><text x="806" y="671" font-family="'Segoe Print','Bradley Hand','Comic Sans MS','Chalkboard SE',cursive" font-size="13" fill="#f08c00" text-anchor="start">one load balancer per service</text><g><path d="M40.49077030055225 718.3731779576093 C431.5077532158047 719.8518584259361, 822.5781625684351 718.9856049903244, 1200.6294492398947 717.5042589593679 M40.153003920353946 717.8122394054756 C493.7401678420976 712.4820096152589, 947.7036049953475 713.097640853481, 1200.0954529524222 717.929466372095 M1201.8247400907799 716.4289220394567 C1200.5590744881333 753.3194113342091, 1198.718519398421 787.2539254778997, 1201.3381395189092 835.3327172638849 M1200.990681231115 717.77370715281 C1199.9078446958147 748.1443244236522, 1200.3781300131163 778.0425676367246, 1199.3904013187625 833.062057982292 M1199.6936060463638 833.337464022711 C788.322082701996 837.1455599423617, 377.05216450594367 838.3863076969355, 40.87454069249332 833.5937673450261 M1200.272632838525 833.8597484343871 C764.2937629340962 829.9553111405776, 328.96399096820494 830.18392737941, 40.2242823863402 833.6950710278377 M41.06726913731545 832.5485273541883 C41.73921160306036 809.2265053069219, 39.88495602811873 781.5884128937498, 41.22277023475617 716.3420019151642 M39.55642394432798 834.7402166559361 C42.10243709996864 806.8201164494269, 41.66477468625232 780.7888421363198, 40.83757427642122 716.9478971286677" stroke="#2f9e44" stroke-width="2.6" fill="none"></path></g><g><path d="M54.74162374958396 730.9200161673128 L185.30041235908865 732.2049855686724 L185.25838538631797 817.9209829546511 L56.56820396408439 816.1735503174365" stroke="none" stroke-width="0" fill="#b2f2bb"></path><path d="M55.763092467933895 731.8365196369589 C102.335134164989 731.2651679895073, 154.88271068260073 733.1369120738655, 184.84992968812585 731.755975522846 M56.62165529243648 731.9226212013513 C92.46074810065329 730.8767173048556, 128.48028028570116 731.0546191808284, 185.15626002065838 732.4274572003633 M186.90173995271326 730.6892574213446 C187.60515074238478 758.9003519818186, 186.06458074555098 784.14063584283, 184.86057195439935 816.6688108108938 M185.13144284002482 731.2773308385164 C185.28346503627898 756.1784578766674, 185.03400382650494 782.1242248836905, 186.55392102710903 817.521899579838 M184.28356752172112 816.0878410004079 C152.9274410277605 817.1850822381228, 118.34455443248153 815.697794645235, 54.77613746896386 819.7317643545568 M186.68711471073328 818.5142018068582 C157.10675314851105 819.2088345565796, 126.57165029905737 820.0813279547691, 54.95780571214855 817.6395311225206 M56.55684177652002 817.7093943975866 C55.40168425165712 794.7950458049773, 54.49351018988192 770.7989001847803, 57.736299083381894 733.6930539272726 M56.65731104128063 818.6612736571581 C56.447117847788334 792.5132312070579, 55.39900017439127 767.1829000148922, 55.98460108749568 732.2790945041925" stroke="#2f9e44" stroke-width="1.8" fill="none"></path></g><text x="121" y="764" font-family="'Segoe Print','Bradley Hand','Comic Sans MS','Chalkboard SE',cursive" font-size="16" fill="#1e1e1e" font-weight="bold" text-anchor="middle">M12</text><text x="121" y="787" font-family="'Segoe Print','Bradley Hand','Comic Sans MS','Chalkboard SE',cursive" font-size="11" fill="#1e1e1e" text-anchor="middle"></text><text x="202" y="751" font-family="'Segoe Print','Bradley Hand','Comic Sans MS','Chalkboard SE',cursive" font-size="17" fill="#2f9e44" font-weight="bold" text-anchor="start">Ingress + HTTPS</text><text x="202" y="776" font-family="'Segoe Print','Bradley Hand','Comic Sans MS','Chalkboard SE',cursive" font-size="12" fill="#1e1e1e" font-weight="bold" text-anchor="start">finds catalog:</text><text x="330" y="777" font-family="'Segoe Print','Bradley Hand','Comic Sans MS','Chalkboard SE',cursive" font-size="13" fill="#1e1e1e" text-anchor="start">one hostname, path routing</text><text x="202" y="802" font-family="'Segoe Print','Bradley Hand','Comic Sans MS','Chalkboard SE',cursive" font-size="12" fill="#1e1e1e" font-weight="bold" text-anchor="start">recovers by:</text><text x="330" y="803" font-family="'Segoe Print','Bradley Hand','Comic Sans MS','Chalkboard SE',cursive" font-size="13" fill="#1e1e1e" text-anchor="start">readiness drives ALB membership</text><text x="700" y="776" font-family="'Segoe Print','Bradley Hand','Comic Sans MS','Chalkboard SE',cursive" font-size="12" fill="#1e1e1e" font-weight="bold" text-anchor="start">deploy:</text><text x="778" y="777" font-family="'Segoe Print','Bradley Hand','Comic Sans MS','Chalkboard SE',cursive" font-size="13" fill="#1e1e1e" text-anchor="start">declared in ~20 lines of YAML</text><text x="700" y="802" font-family="'Segoe Print','Bradley Hand','Comic Sans MS','Chalkboard SE',cursive" font-size="12" fill="#1e1e1e" font-weight="bold" text-anchor="start">still broken:</text><text x="806" y="803" font-family="'Segoe Print','Bradley Hand','Comic Sans MS','Chalkboard SE',cursive" font-size="13" fill="#f08c00" text-anchor="start">deploys are still typed by hand  -&gt;  Module 13</text><text x="620" y="863" font-family="'Segoe Print','Bradley Hand','Comic Sans MS','Chalkboard SE',cursive" font-size="17" fill="#1e1e1e" font-weight="bold" text-anchor="middle">The application code never changed. Not one line, from Module 00 to Module 12.</text><text x="620" y="887" font-family="'Segoe Print','Bradley Hand','Comic Sans MS','Chalkboard SE',cursive" font-size="15" fill="#868e96" text-anchor="middle">Everything above is a deployment concern, and every step removed a human from the loop.</text></svg>